<?xml version="1.0" encoding="UTF-8" standalone="no"?>
<!-- Created with Inkscape (http://www.inkscape.org/) -->

<svg
   xmlns:dc="http://purl.org/dc/elements/1.1/"
   xmlns:cc="http://creativecommons.org/ns#"
   xmlns:rdf="http://www.w3.org/1999/02/22-rdf-syntax-ns#"
   xmlns:svg="http://www.w3.org/2000/svg"
   xmlns="http://www.w3.org/2000/svg"
   xmlns:sodipodi="http://sodipodi.sourceforge.net/DTD/sodipodi-0.dtd"
   xmlns:inkscape="http://www.inkscape.org/namespaces/inkscape"
   width="512"
   height="512"
   viewBox="0 0 135.46666 135.46667"
   version="1.1"
   id="svg8"
   inkscape:version="0.92.4 (f8dce91, 2019-08-02)"
   sodipodi:docname="hairs.svg">
  <defs
     id="defs2" />
  <sodipodi:namedview
     id="base"
     pagecolor="#ffffff"
     bordercolor="#666666"
     borderopacity="1.0"
     inkscape:pageopacity="0.0"
     inkscape:pageshadow="2"
     inkscape:zoom="2"
     inkscape:cx="94.29978"
     inkscape:cy="137.9946"
     inkscape:document-units="mm"
     inkscape:current-layer="layer1"
     showgrid="true"
     units="px"
     inkscape:window-width="6004"
     inkscape:window-height="3328"
     inkscape:window-x="140"
     inkscape:window-y="54"
     inkscape:window-maximized="1">
    <inkscape:grid
       type="xygrid"
       id="grid815"
       spacingx="2.6458333"
       spacingy="2.6458333"
       snapvisiblegridlinesonly="true" />
  </sodipodi:namedview>
  <metadata
     id="metadata5">
    <rdf:RDF>
      <cc:Work
         rdf:about="">
        <dc:format>image/svg+xml</dc:format>
        <dc:type
           rdf:resource="http://purl.org/dc/dcmitype/StillImage" />
        <dc:title></dc:title>
      </cc:Work>
    </rdf:RDF>
  </metadata>
  <g
     inkscape:label="Layer 1"
     inkscape:groupmode="layer"
     id="layer1"
     transform="translate(0,-161.53332)">
    <path
       style="fill:none;fill-opacity:1;stroke:#000000;stroke-width:0.79374999;stroke-linecap:round;stroke-linejoin:miter;stroke-miterlimit:4;stroke-dasharray:none;stroke-opacity:1"
       d="m -232.83333,238.79165 c 0,34.39583 -15.875,55.56249 -15.875,55.56249 h -5.29166 c 0,0 18.14679,-21.09984 18.14679,-55.49567 0,-34.39584 -26.08429,-39.75432 -26.08429,-63.56682 0,23.8125 29.10416,29.10416 29.10416,63.5 z"
       id="path817"
       inkscape:connector-curvature="0"
       sodipodi:nodetypes="sccscs" />
    <path
       style="fill:none;fill-opacity:1;stroke:#000000;stroke-width:0.79374999;stroke-linecap:square;stroke-linejoin:miter;stroke-miterlimit:4;stroke-dasharray:none;stroke-opacity:1"
       d="m -209.02083,246.72915 c 0,14.81095 -7.55198,14.21426 -10.90405,23.48559 -4.43252,12.2597 5.1853,23.65791 5.1853,23.65791 h -5.29167 c 0,0 -0.0186,-0.0304 -0.0538,-0.0895 -0.7037,-1.18212 -8.03598,-13.83713 -5.37768,-23.5715 3.59318,-13.15776 13.27123,-6.79033 13.42199,-23.41571 0.31188,-34.39443 -18.57388,-16.42331 -18.57388,-40.23581 0,23.8125 21.59376,5.77315 21.59376,40.16899 z"
       id="path817-6"
       inkscape:connector-curvature="0"
       sodipodi:nodetypes="ssccssscs" />
    <path
       style="fill:none;fill-opacity:1;stroke:#000000;stroke-width:0.79374999;stroke-linecap:round;stroke-linejoin:miter;stroke-miterlimit:4;stroke-dasharray:none;stroke-opacity:1"
       d="m -198.06345,262.50392 c -3.56265,19.94399 -11.48921,18.70249 7.13637,31.36873 h -5.29167 c -18.09374,-15.3935 -8.40932,-11.42474 -4.86458,-31.2685 7.9375,-47.625 34.39584,-19.84374 34.39584,-55.5625 0,35.71876 -23.8125,11.90626 -31.37596,55.46227 z"
       id="path817-6-7"
       inkscape:connector-curvature="0"
       sodipodi:nodetypes="cccccc" />
    <path
       style="fill:none;fill-opacity:1;stroke:#000000;stroke-width:0.79374999;stroke-linecap:round;stroke-linejoin:miter;stroke-miterlimit:4;stroke-dasharray:none;stroke-opacity:1"
       d="m -169.33333,267.89582 c -3.56265,13.29599 -8.46932,13.31059 10.15624,25.97683 h -5.29167 c -12.80207,-10.10183 -11.05514,-12.74766 -7.5104,-25.97683 2.11085,-8.44342 7.11804,-12.27115 10.45317,-11.49981 9.20604,2.12914 18.65099,28.97975 18.65099,11.49981 0,23.8125 -18.89488,-29.03734 -26.45833,0 z"
       id="path817-6-7-5"
       inkscape:connector-curvature="0"
       sodipodi:nodetypes="ccccscc" />
    <path
       style="fill:none;fill-opacity:1;stroke:#000000;stroke-width:0.79374999;stroke-linecap:round;stroke-linejoin:miter;stroke-miterlimit:4;stroke-dasharray:none;stroke-opacity:1"
       d="m -283.10416,251.87908 c 0,34.39583 7.9375,42.47506 7.9375,42.47506 h -5.29167 c 0,0 -5.66571,-8.01241 -5.66571,-42.40824 0,-34.39584 -2.27179,-52.84175 -2.27179,-76.65425 0,23.8125 5.29167,42.19159 5.29167,76.58743 z"
       id="path817-3"
       inkscape:connector-curvature="0"
       sodipodi:nodetypes="sccscs" />
    <path
       style="fill:none;fill-opacity:1;stroke:#000000;stroke-width:0.79374999;stroke-linecap:round;stroke-linejoin:miter;stroke-miterlimit:4;stroke-dasharray:none;stroke-opacity:1"
       d="m -127,251.87909 c -7.7646,33.50797 7.9375,42.47506 7.9375,42.47506 h -5.29167 c 0,0 -11.26796,-8.47171 -5.66571,-42.40824 4.44412,-26.92089 23.31819,-30.2046 33.098434,-12.17567 2.6884,4.9558 -0.97438,30.77141 -16.849384,22.83391 13.22917,2.64584 16.419934,-16.21754 14.068884,-21.25595 C -105.83333,228.20832 -120.93302,225.6972 -127,251.87909 Z"
       id="path817-3-6"
       inkscape:connector-curvature="0"
       sodipodi:nodetypes="sccsscss" />
    <path
       style="fill:none;fill-opacity:1;stroke:#000000;stroke-width:0.79374999;stroke-linecap:round;stroke-linejoin:miter;stroke-miterlimit:4;stroke-dasharray:none;stroke-opacity:1"
       d="m -76.729166,275.83332 c -3.56265,13.29599 -0.53182,8.01892 18.09374,20.68516 h -5.29167 c -12.80206,-10.10183 -18.99264,-7.45599 -15.4479,-20.68516 0.81138,-3.24553 3.60633,-12.04277 9.11452,-11.90176 1.30508,0.0334 1.46881,-9.26491 12.09957,-23.92046 -1.09253,3.79851 -4.08469,8.17727 -5.65626,12.33011 -2.3026,6.08455 -3.04972,11.41595 -2.60057,11.51983 9.20604,2.12915 24.0844,24.16055 24.0844,6.68061 0,23.8125 -26.83238,-23.74567 -34.39583,5.29167 z"
       id="path817-6-7-5-2"
       inkscape:connector-curvature="0"
       sodipodi:nodetypes="ccccccsccc" />
    <path
       style="fill:none;stroke:#000000;stroke-width:0.79374999;stroke-linecap:round;stroke-linejoin:miter;stroke-miterlimit:4;stroke-dasharray:none;stroke-opacity:1"
       d="m -230.18749,371.22505 c 0,34.39583 -15.875,55.56249 -15.875,55.56249 h -5.29167 c 0,0 18.14679,-21.09984 18.14679,-55.49567 0,-7.4582 -1.22641,-13.55115 -3.14737,-18.76301 0.87558,0.0336 0.87558,0.0336 2.70098,0.0522 2.11722,5.18247 3.46627,11.23872 3.46627,18.64403 z"
       id="path817-9"
       inkscape:connector-curvature="0"
       sodipodi:nodetypes="sccsccs" />
    <path
       style="fill:none;stroke:#000000;stroke-width:0.79374999;stroke-linecap:square;stroke-linejoin:miter;stroke-miterlimit:4;stroke-dasharray:none;stroke-opacity:1"
       d="m -206.37499,379.16255 c 0,14.81095 -7.55199,14.21426 -10.90405,23.48559 -4.43253,12.2597 5.18529,23.65791 5.18529,23.65791 h -5.29167 c 0,0 -0.0186,-0.0304 -0.0538,-0.0895 -0.7037,-1.18212 -8.03598,-13.83713 -5.37767,-23.5715 3.59318,-13.15776 13.27123,-6.79033 13.42198,-23.41571 0.0182,-2.00461 -0.0289,-3.83134 -0.13356,-5.49883 3.15344,-10e-4 0.5076,-10e-4 2.94867,0.0155 0.1338,1.64499 0.20477,3.44456 0.20477,5.41647 z"
       id="path817-6-1"
       inkscape:connector-curvature="0"
       sodipodi:nodetypes="ssccsssccss" />
    <path
       style="fill:none;stroke:#000000;stroke-width:0.79374999;stroke-linecap:round;stroke-linejoin:miter;stroke-miterlimit:4;stroke-dasharray:none;stroke-opacity:1"
       d="m -195.41762,394.93732 c -3.56265,19.94399 -11.48921,18.70249 7.13637,31.36873 h -5.29167 c -18.09374,-15.3935 -8.40932,-11.42474 -4.86457,-31.2685 0.88971,-5.33824 2.01211,-9.72908 3.30386,-13.36813 1.9878,-0.003 1.9878,-0.003 3.19104,-0.0385 -1.35627,3.56546 -2.53985,7.92098 -3.47503,13.3064 z"
       id="path817-6-7-2"
       inkscape:connector-curvature="0"
       sodipodi:nodetypes="ccccccc" />
    <path
       style="fill:none;stroke:#000000;stroke-width:0.79374999;stroke-linecap:round;stroke-linejoin:miter;stroke-miterlimit:4;stroke-dasharray:none;stroke-opacity:1"
       d="m -166.6875,400.32922 c -3.56264,13.29599 -8.46932,13.31059 10.15624,25.97683 h -5.29167 c -12.80207,-10.10183 -11.05514,-12.74766 -7.5104,-25.97683 2.11086,-8.44342 7.11803,-12.27115 10.45317,-11.49981 1.78225,0.41219 3.57346,1.75093 5.30336,3.51519 -0.79859,1.78077 0.11847,-0.0946 -0.91718,1.94091 -4.59301,-4.15575 -9.25088,-5.25359 -12.19352,6.04371 z"
       id="path817-6-7-5-7"
       inkscape:connector-curvature="0"
       sodipodi:nodetypes="ccccsccc" />
    <path
       style="fill:none;stroke:#000000;stroke-width:0.79374999;stroke-linecap:round;stroke-linejoin:miter;stroke-miterlimit:4;stroke-dasharray:none;stroke-opacity:1"
       d="m -280.45832,384.31248 c 0,34.39583 7.9375,42.47506 7.9375,42.47506 h -5.29167 c 0,0 -5.66571,-8.01241 -5.66571,-42.40824 0,-10.03493 -0.19337,-18.71226 -0.46728,-26.56131 0.84132,0.0362 0.84132,0.0362 2.41196,0.10993 0.631,7.79815 1.0752,16.41911 1.0752,26.38456 z"
       id="path817-3-0"
       inkscape:connector-curvature="0"
       sodipodi:nodetypes="sccsccs" />
    <path
       style="fill:none;stroke:#000000;stroke-width:0.79374999;stroke-linecap:round;stroke-linejoin:miter;stroke-miterlimit:4;stroke-dasharray:none;stroke-opacity:1"
       d="m -124.35417,384.31249 c -7.7646,33.50797 7.9375,42.47506 7.9375,42.47506 h -5.29167 c 0,0 -11.26796,-8.47171 -5.66571,-42.40824 4.44412,-26.92089 23.31818,-30.20459 33.098434,-12.17567 0.54758,1.00942 0.83168,2.88425 0.80275,5.163 -1.77713,-0.99165 -1.77713,-0.99165 -2.87465,0.49621 -0.0196,-1.69338 -0.26586,-3.13245 -0.7086,-4.08125 -6.131404,-13.13987 -21.231074,-15.651 -27.298054,10.53089 z"
       id="path817-3-6-9"
       inkscape:connector-curvature="0"
       sodipodi:nodetypes="sccssccss" />
    <path
       style="fill:none;stroke:#000000;stroke-width:0.79374999;stroke-linecap:round;stroke-linejoin:miter;stroke-miterlimit:4;stroke-dasharray:none;stroke-opacity:1"
       d="m -74.083336,408.26672 c -3.56265,13.29599 -0.53182,8.01892 18.09374,20.68516 h -5.29167 c -12.80206,-10.10183 -18.99264,-7.45599 -15.4479,-20.68516 0.74471,-2.97886 3.16043,-10.6346 7.81132,-11.76353 0.12618,1.03846 0.12618,1.03846 1.42237,2.31573 -2.73143,0.82496 -5.05524,3.56385 -6.58786,9.44782 z"
       id="path817-6-7-5-2-3"
       inkscape:connector-curvature="0"
       sodipodi:nodetypes="cccccccc" />
    <path
       style="fill:none;stroke:#000000;stroke-width:0.79374999;stroke-linecap:round;stroke-linejoin:miter;stroke-miterlimit:4;stroke-dasharray:none;stroke-opacity:1"
       d="m -229.09549,527.23564 c -3.99656,23.3691 -14.32116,37.13523 -14.32116,37.13523 h -5.29166 c 0,0 11.85762,-13.78723 16.40267,-37.23971 z"
       id="path817-9-6"
       inkscape:connector-curvature="0"
       sodipodi:nodetypes="ccccc" />
    <path
       style="fill:none;stroke:#000000;stroke-width:0.79374999;stroke-linecap:square;stroke-linejoin:miter;stroke-miterlimit:4;stroke-dasharray:none;stroke-opacity:1"
       d="m -214.6332,540.23147 c -1.36608,3.77838 -1.3976,7.47492 -0.78742,10.78119 1.36968,7.4216 5.97272,12.87672 5.97272,12.87672 h -5.29167 c 0,0 -0.0186,-0.0304 -0.0538,-0.0895 -0.46141,-0.77509 -3.77255,-6.48257 -5.24868,-13.06508 -0.77517,-3.45669 -1.04431,-7.15469 -0.129,-10.50642 z"
       id="path817-6-1-0"
       inkscape:connector-curvature="0"
       sodipodi:nodetypes="csccsscc" />
    <path
       style="fill:none;stroke:#000000;stroke-width:0.79374999;stroke-linecap:round;stroke-linejoin:miter;stroke-miterlimit:4;stroke-dasharray:none;stroke-opacity:1"
       d="m -195.15627,556.39767 c 1.81568,1.988 4.82405,4.29766 9.52086,7.49171 h -5.29167 c -3.88482,-3.30507 -6.48911,-5.71756 -8.14858,-7.66482 z"
       id="path817-6-7-2-6"
       inkscape:connector-curvature="0"
       sodipodi:nodetypes="ccccc" />
    <path
       style="fill:none;stroke:#000000;stroke-width:0.79374999;stroke-linecap:round;stroke-linejoin:miter;stroke-miterlimit:4;stroke-dasharray:none;stroke-opacity:1"
       d="m -167.28693,548.52274 c -0.72937,4.42537 1.66097,7.38253 13.40151,15.36664 h -5.29167 c -8.4792,-6.69075 -10.57602,-10.11069 -9.99535,-15.50119 z"
       id="path817-6-7-5-7-2"
       inkscape:connector-curvature="0"
       sodipodi:nodetypes="ccccc" />
    <path
       style="fill:none;stroke:#000000;stroke-width:0.79374999;stroke-linecap:round;stroke-linejoin:miter;stroke-miterlimit:4;stroke-dasharray:none;stroke-opacity:1"
       d="m -277.38884,534.85151 c 1.64442,23.54512 7.51386,29.51936 7.51386,29.51936 h -5.29167 c 0,0 -4.19276,-5.92938 -5.36467,-29.48319 z"
       id="path817-3-0-6"
       inkscape:connector-curvature="0"
       sodipodi:nodetypes="ccccc" />
    <path
       style="fill:none;stroke:#000000;stroke-width:0.79374999;stroke-linecap:round;stroke-linejoin:miter;stroke-miterlimit:4;stroke-dasharray:none;stroke-opacity:1"
       d="m -118.1219,560.05723 c 2.27138,3.12599 4.35106,4.31365 4.35106,4.31365 h -5.29166 c 0,0 -1.33223,-1.00162 -2.85277,-3.6957 z"
       id="path817-3-6-9-1"
       inkscape:connector-curvature="0"
       sodipodi:nodetypes="ccccc" />
    <path
       style="fill:none;stroke:#000000;stroke-width:0.79374999;stroke-linecap:round;stroke-linejoin:miter;stroke-miterlimit:4;stroke-dasharray:none;stroke-opacity:1"
       d="m -72.347356,549.54269 c -1.81991,8.6754 2.38234,5.6893 19.0036,16.99252 h -5.29167 c -11.58628,-9.14248 -17.7572,-7.84356 -16.19709,-17.32114 z"
       id="path817-6-7-5-2-3-8"
       inkscape:connector-curvature="0"
       sodipodi:nodetypes="ccccc" />
    <path
       style="fill:#ced0ed;fill-opacity:1;stroke:#000000;stroke-width:0.79374999;stroke-linecap:butt;stroke-linejoin:miter;stroke-miterlimit:4;stroke-dasharray:none;stroke-opacity:1"
       d="m 38.641336,218.22088 c 7.922672,2.04187 31.313364,-9.63842 35.441996,-32.34589 0,0 11.504631,2.24033 21.166667,2.64583 0.50183,-6.2555 2.645836,-23.8125 2.645836,-23.8125 0,0 -29.973172,3.27 -44.97917,2.64583 -6.230901,-0.25917 -18.520834,-2.64583 -18.520834,-2.64583 2.487199,16.05438 2.03704,31.89342 1.260641,47.7118 -0.461266,3.35149 0.753047,5.22557 2.984864,5.80076"
       id="path1121-7"
       inkscape:connector-curvature="0"
       sodipodi:nodetypes="ccccsccc" />
    <path
       style="fill:#747db1;fill-opacity:1;stroke:none;stroke-width:0.26458332px;stroke-linecap:butt;stroke-linejoin:miter;stroke-opacity:1"
       d="m 42.088651,172.25241 c 0.42397,15.85643 0.772009,26.60096 0.876228,37.89454 0.003,0.32294 1.203211,5.94178 0.370988,6.64479 -0.619881,0.52363 -3.241931,-2.00279 -3.648368,-9.75009 -0.933259,-19.21543 2.401152,-34.78924 2.401152,-34.78924 z"
       id="path1190"
       inkscape:connector-curvature="0"
       sodipodi:nodetypes="csscc" />
    <path
       style="fill:#fabbe9;fill-opacity:1;stroke:#000000;stroke-width:0.79374999;stroke-linecap:butt;stroke-linejoin:miter;stroke-miterlimit:4;stroke-dasharray:none;stroke-opacity:1"
       d="m 89.833333,172.64582 c 0,0 -11.646129,0.87919 -17.481398,0.94494 -10.010521,0.11279 -30.018602,-0.94494 -30.018602,-0.94494 0,0 -2.310788,26.79346 -0.257879,41.50155 0.68898,4.93621 5.508941,2.25832 5.549545,3.47762 21.31529,-3.37817 42.056267,23.38782 42.208334,-44.97917 z"
       id="path1121-3"
       inkscape:connector-curvature="0"
       sodipodi:nodetypes="cscscc" />
    <path
       style="fill:#ced0ed;fill-opacity:1;stroke:#000000;stroke-width:0.79374999;stroke-linecap:butt;stroke-linejoin:miter;stroke-miterlimit:4;stroke-dasharray:none;stroke-opacity:1"
       d="m 95.249999,185.87499 c 11.889201,-0.0713 29.823741,-1.72324 29.823741,-1.72324 -5.19733,32.12323 -16.87602,39.69135 -23.7399,39.14259 l -60.472833,-4.83472 c 0,0 27.930659,-3.48047 31.296068,-34.30787 0,0 13.790685,1.77904 23.092924,1.72324"
       id="path1121"
       inkscape:connector-curvature="0"
       sodipodi:nodetypes="ccsccc" />
    <path
       style="fill:#ced0ed;fill-opacity:1;stroke:#000000;stroke-width:0.79374999;stroke-linecap:butt;stroke-linejoin:miter;stroke-miterlimit:4;stroke-dasharray:none;stroke-opacity:1"
       d="m 145.52083,169.99999 c 3.36654,21.73039 1.35157,43.06626 0.43021,64.49037 -0.42451,9.87089 0.4804,19.48512 0.48818,29.38952 0.007,9.18125 -0.89608,18.65173 -0.91839,27.82844 0,0 18.56263,-1.481 27.86487,-1.5368 11.8892,-0.0713 35.63513,1.5368 35.63513,1.5368 -2.00546,-0.27112 0.97283,-67.52664 -1.35305,-100.8041 -0.3842,-5.49695 1.35305,-20.90423 1.35305,-20.90423 0,0 -29.97317,3.27 -44.97917,2.64583 -6.2309,-0.25917 -18.52083,-2.64583 -18.52083,-2.64583 z"
       id="path1121-9"
       inkscape:connector-curvature="0"
       sodipodi:nodetypes="csscscscsc" />
    <path
       style="fill:#747db1;fill-opacity:1;stroke:none;stroke-width:0.26458332px;stroke-linecap:butt;stroke-linejoin:miter;stroke-opacity:1"
       d="m 153.45832,177.93749 2.64584,66.14583 -2.64584,39.6875 v 0 c 0,0 -0.64834,-10.12326 -0.93746,-41.10498 -0.15645,-16.76514 -0.60588,-38.11968 0.62254,-65.0741 0.0228,-0.50006 0.31492,0.34575 0.31492,0.34575 z"
       id="path1190-3"
       inkscape:connector-curvature="0"
       sodipodi:nodetypes="ccccssc" />
    <path
       style="fill:#fabbe9;fill-opacity:1;stroke:#000000;stroke-width:0.79374999;stroke-linecap:butt;stroke-linejoin:miter;stroke-miterlimit:4;stroke-dasharray:none;stroke-opacity:1"
       d="m 153.58332,283.64452 h 47.50001 c 0,0 1.91879,-36.30376 1.70089,-46.36477 -0.54585,-25.20291 -1.70089,-59.34226 -1.70089,-59.34226 0,0 -11.64613,0.87919 -17.4814,0.94494 -10.01052,0.11279 -30.01861,-0.94494 -30.01861,-0.94494 0,0 -0.61187,26.46723 -0.125,39.6875 0.42321,11.49136 1.33887,23.18018 1.32292,34.67931 -0.0147,10.57466 -1.19792,31.34022 -1.19792,31.34022 z"
       id="path1121-3-1"
       inkscape:connector-curvature="0"
       sodipodi:nodetypes="ccscscssc" />
    <path
       style="fill:#f497da;fill-opacity:1;stroke:#000000;stroke-width:0.79374999;stroke-linecap:butt;stroke-linejoin:miter;stroke-miterlimit:4;stroke-dasharray:none;stroke-opacity:1"
       d="m 117.47929,188.64128 c -13.94813,1.33865 -27.988177,1.10988 -41.917961,0.20703 -0.104776,14.88307 -12.977045,26.65204 -22.629931,30.50554 15.345821,0.57614 32.604375,5.61475 47.935852,4.022 10.33043,-6.17089 16.57029,-24.31166 19.41478,-34.96114 -0.93425,0.0755 -1.86849,0.15105 -2.80274,0.22657 z"
       id="path1121-8"
       inkscape:connector-curvature="0"
       sodipodi:nodetypes="cccccc" />
    <path
       style="fill:#000000;fill-opacity:1;stroke:#000000;stroke-width:0.09034606;stroke-linecap:round;stroke-linejoin:miter;stroke-miterlimit:4;stroke-dasharray:none;stroke-opacity:1"
       d="m 87.953592,195.70277 c 0,3.91499 -1.806922,6.32422 -1.806922,6.32422 h -0.602307 c 0,0 2.0655,-2.40162 2.0655,-6.31662 0,-0.8489 -0.139592,-1.54241 -0.358239,-2.13564 0.09966,0.004 0.09966,0.004 0.30743,0.006 0.240986,0.58988 0.394538,1.27921 0.394538,2.1221 z"
       id="path817-9-4"
       inkscape:connector-curvature="0"
       sodipodi:nodetypes="sccsccs" />
    <path
       style="fill:#000000;fill-opacity:1;stroke:#000000;stroke-width:0.09034606;stroke-linecap:square;stroke-linejoin:miter;stroke-miterlimit:4;stroke-dasharray:none;stroke-opacity:1"
       d="m 90.663974,201.35378 c 0,-1.68581 -0.859582,-1.61789 -1.241119,-2.67317 -0.504519,-1.39542 0.590199,-2.69279 0.590199,-2.69279 h -0.602307 c 0,0 -0.0021,0.003 -0.0061,0.0102 -0.0801,0.13455 -0.91467,1.57496 -0.612096,2.68295 0.408982,1.49764 1.510555,0.77289 1.527714,2.66521 0.0021,0.22818 -0.0033,0.4361 -0.0152,0.62589 0.35893,1.1e-4 0.05778,1.1e-4 0.335623,-0.002 0.01523,-0.18724 0.02331,-0.39206 0.02331,-0.61651 z"
       id="path817-6-1-5"
       inkscape:connector-curvature="0"
       sodipodi:nodetypes="ssccsssccss" />
    <path
       style="fill:#000000;fill-opacity:1;stroke:#000000;stroke-width:0.09034606;stroke-linecap:round;stroke-linejoin:miter;stroke-miterlimit:4;stroke-dasharray:none;stroke-opacity:1"
       d="m 91.824077,198.40174 c 0.405507,2.27006 1.307723,2.12875 -0.812275,3.57045 h 0.602308 c 2.059462,-1.75212 0.957164,-1.30039 0.553694,-3.55904 -0.101269,-0.60761 -0.229022,-1.10738 -0.376051,-1.52159 -0.226255,-3.2e-4 -0.226255,-3.2e-4 -0.36321,-0.004 0.154373,0.40583 0.28909,0.90158 0.395534,1.51456 z"
       id="path817-6-7-2-0"
       inkscape:connector-curvature="0"
       sodipodi:nodetypes="ccccccc" />
    <path
       style="fill:#000000;fill-opacity:1;stroke:#000000;stroke-width:0.09034606;stroke-linecap:round;stroke-linejoin:miter;stroke-miterlimit:4;stroke-dasharray:none;stroke-opacity:1"
       d="m 95.181277,199.01546 c -0.405507,1.51337 -0.963996,1.51503 1.155998,2.95673 h -0.602307 c -1.457153,-1.14981 -1.258314,-1.45097 -0.854845,-2.95673 0.24026,-0.96105 0.810187,-1.39673 1.189798,-1.30893 0.202859,0.0469 0.406738,0.19929 0.603639,0.4001 -0.0909,0.20269 0.01348,-0.0108 -0.104395,0.22092 -0.522784,-0.47301 -1.052955,-0.59797 -1.387888,0.68791 z"
       id="path817-6-7-5-7-3"
       inkscape:connector-curvature="0"
       sodipodi:nodetypes="ccccsccc" />
    <path
       style="fill:#000000;fill-opacity:1;stroke:#000000;stroke-width:0.09034606;stroke-linecap:round;stroke-linejoin:miter;stroke-miterlimit:4;stroke-dasharray:none;stroke-opacity:1"
       d="m 82.231675,197.1924 c 0,3.915 0.90346,4.83459 0.90346,4.83459 h -0.602307 c 0,0 -0.644881,-0.91199 -0.644881,-4.82698 0,-1.1422 -0.02201,-2.12986 -0.05319,-3.02326 0.09576,0.004 0.09576,0.004 0.274534,0.0125 0.07182,0.8876 0.122381,1.86885 0.122381,3.00314 z"
       id="path817-3-0-61"
       inkscape:connector-curvature="0"
       sodipodi:nodetypes="sccsccs" />
    <path
       style="fill:#000000;fill-opacity:1;stroke:#000000;stroke-width:0.09034606;stroke-linecap:round;stroke-linejoin:miter;stroke-miterlimit:4;stroke-dasharray:none;stroke-opacity:1"
       d="M 102.99346,199.36639 C 103.87723,195.55245 102.09,194.5318 102.09,194.5318 h 0.60231 c 0,0 1.28253,0.96426 0.64487,4.82698 -0.50583,3.06418 -2.65411,3.43794 -3.767324,1.38586 -0.0623,-0.1149 -0.0947,-0.32829 -0.0914,-0.58767 0.20228,0.11288 0.20228,0.11288 0.3272,-0.0565 0.002,0.19274 0.0303,0.35654 0.0807,0.46453 0.697894,1.4956 2.416564,1.78143 3.107114,-1.19864 z"
       id="path817-3-6-9-0"
       inkscape:connector-curvature="0"
       sodipodi:nodetypes="sccssccss" />
    <path
       style="fill:#000000;fill-opacity:1;stroke:#000000;stroke-width:0.09034606;stroke-linecap:round;stroke-linejoin:miter;stroke-miterlimit:4;stroke-dasharray:none;stroke-opacity:1"
       d="m 105.72165,199.91892 c -0.40551,1.51337 -0.0605,0.91273 2.05946,2.35442 h -0.60231 c -1.45715,-1.14981 -2.16178,-0.84865 -1.75831,-2.35442 0.0848,-0.33906 0.35973,-1.21045 0.8891,-1.33895 0.0143,0.1182 0.0143,0.1182 0.1619,0.26358 -0.3109,0.0939 -0.5754,0.40564 -0.74984,1.07537 z"
       id="path817-6-7-5-2-3-6"
       inkscape:connector-curvature="0"
       sodipodi:nodetypes="cccccccc" />
    <path
       style="fill:#000000;fill-opacity:1;stroke:#000000;stroke-width:0.09034607;stroke-linecap:round;stroke-linejoin:miter;stroke-miterlimit:4;stroke-dasharray:none;stroke-opacity:1"
       d="m 99.084515,217.9164 c -0.40551,1.51337 -0.0605,0.91273 2.059465,2.35442 h -0.60231 c -1.457155,-1.14981 -2.161785,-0.84865 -1.758315,-2.35442 0.0848,-0.33906 0.35973,-1.21045 0.8891,-1.33895 0.0143,0.1182 0.0143,0.1182 0.1619,0.26358 -0.3109,0.0939 -0.5754,0.40564 -0.74984,1.07537 z"
       id="path817-6-7-5-2-3-6-3"
       inkscape:connector-curvature="0"
       sodipodi:nodetypes="cccccccc" />
    <path
       style="fill:#000000;fill-opacity:1;stroke:#000000;stroke-width:0.09034607;stroke-linecap:round;stroke-linejoin:miter;stroke-miterlimit:4;stroke-dasharray:none;stroke-opacity:1"
       d="m 95.138317,215.79392 c -0.40551,1.51337 -0.0605,0.91273 2.05946,2.35442 h -0.60231 c -1.45715,-1.14981 -2.16178,-0.84865 -1.75831,-2.35442 0.0848,-0.33906 0.35973,-1.21045 0.8891,-1.33895 0.0143,0.1182 0.0143,0.1182 0.1619,0.26358 -0.3109,0.0939 -0.5754,0.40564 -0.74984,1.07537 z"
       id="path817-6-7-5-2-3-6-2"
       inkscape:connector-curvature="0"
       sodipodi:nodetypes="cccccccc" />
    <path
       style="fill:#000000;fill-opacity:1;stroke:#000000;stroke-width:0.09034607;stroke-linecap:round;stroke-linejoin:miter;stroke-miterlimit:4;stroke-dasharray:none;stroke-opacity:1"
       d="m 76.617484,210.50225 c -0.40551,1.51337 -0.0605,0.91273 2.05946,2.35442 h -0.60231 c -1.45715,-1.14981 -2.16178,-0.84865 -1.75831,-2.35442 0.0848,-0.33906 0.35973,-1.21045 0.8891,-1.33895 0.0143,0.1182 0.0143,0.1182 0.1619,0.26358 -0.3109,0.0939 -0.5754,0.40564 -0.74984,1.07537 z"
       id="path817-6-7-5-2-3-6-0"
       inkscape:connector-curvature="0"
       sodipodi:nodetypes="cccccccc" />
    <path
       style="fill:#000000;fill-opacity:1;stroke:#000000;stroke-width:0.09034607;stroke-linecap:round;stroke-linejoin:miter;stroke-miterlimit:4;stroke-dasharray:none;stroke-opacity:1"
       d="m 76.617484,216.79867 c -0.40551,-1.51337 -0.0605,-0.91273 2.05946,-2.35442 h -0.60231 c -1.45715,1.14981 -2.16178,0.84865 -1.75831,2.35442 0.0848,0.33906 0.35973,1.21045 0.8891,1.33895 0.0143,-0.1182 0.0143,-0.1182 0.1619,-0.26358 -0.3109,-0.0939 -0.5754,-0.40564 -0.74984,-1.07537 z"
       id="path817-6-7-5-2-3-6-6"
       inkscape:connector-curvature="0"
       sodipodi:nodetypes="cccccccc" />
    <path
       style="fill:#000000;fill-opacity:1;stroke:#000000;stroke-width:0.09034607;stroke-linecap:round;stroke-linejoin:miter;stroke-miterlimit:4;stroke-dasharray:none;stroke-opacity:1"
       d="m 95.138317,207.85642 c -0.40551,1.51337 -0.0605,0.91273 2.05946,2.35442 h -0.60231 c -1.45715,-1.14981 -2.16178,-0.84865 -1.75831,-2.35442 0.0848,-0.33906 0.35973,-1.21045 0.8891,-1.33895 0.0143,0.1182 0.0143,0.1182 0.1619,0.26358 -0.3109,0.0939 -0.5754,0.40564 -0.74984,1.07537 z"
       id="path817-6-7-5-2-3-6-1"
       inkscape:connector-curvature="0"
       sodipodi:nodetypes="cccccccc" />
    <path
       style="fill:#000000;fill-opacity:1;stroke:#000000;stroke-width:0.09034607;stroke-linecap:round;stroke-linejoin:miter;stroke-miterlimit:4;stroke-dasharray:none;stroke-opacity:1"
       d="m 81.90915,210.50225 c -0.40551,1.51337 -0.0605,0.91273 2.05946,2.35442 H 83.3663 c -1.45715,-1.14981 -2.16178,-0.84865 -1.75831,-2.35442 0.0848,-0.33906 0.35973,-1.21045 0.8891,-1.33895 0.0143,0.1182 0.0143,0.1182 0.1619,0.26358 -0.3109,0.0939 -0.5754,0.40564 -0.74984,1.07537 z"
       id="path817-6-7-5-2-3-6-5"
       inkscape:connector-curvature="0"
       sodipodi:nodetypes="cccccccc" />
    <path
       style="fill:#000000;fill-opacity:1;stroke:#000000;stroke-width:0.09034607;stroke-linecap:round;stroke-linejoin:miter;stroke-miterlimit:4;stroke-dasharray:none;stroke-opacity:1"
       d="m 108.28512,196.72056 c 0.88378,-3.81394 -0.90346,-4.83459 -0.90346,-4.83459 h 0.60231 c 0,0 1.28254,0.96426 0.64488,4.82698 -0.50584,3.06418 -2.65412,3.43794 -3.76733,1.38586 -0.0623,-0.1149 -0.0947,-0.32829 -0.0914,-0.58767 0.20228,0.11288 0.20228,0.11288 0.3272,-0.0565 0.002,0.19274 0.0303,0.35654 0.0807,0.46453 0.69789,1.4956 2.41656,1.78143 3.10712,-1.19864 z"
       id="path817-3-6-9-0-5"
       inkscape:connector-curvature="0"
       sodipodi:nodetypes="sccssccss" />
    <path
       style="fill:#000000;fill-opacity:1;stroke:#000000;stroke-width:0.09034607;stroke-linecap:round;stroke-linejoin:miter;stroke-miterlimit:4;stroke-dasharray:none;stroke-opacity:1"
       d="m 113.57679,194.54657 c 0.88378,3.81394 -0.90346,4.83459 -0.90346,4.83459 h 0.60231 c 0,0 1.28253,-0.96426 0.64488,-4.82698 -0.50584,-3.06418 -2.65412,-3.43794 -3.76733,-1.38586 -0.0623,0.1149 -0.0947,0.32829 -0.0914,0.58767 0.20228,-0.11288 0.20228,-0.11288 0.3272,0.0565 0.002,-0.19274 0.0303,-0.35654 0.0807,-0.46453 0.69789,-1.4956 2.41656,-1.78143 3.10711,1.19864 z"
       id="path817-3-6-9-0-4"
       inkscape:connector-curvature="0"
       sodipodi:nodetypes="sccssccss" />
    <path
       style="fill:#000000;fill-opacity:1;stroke:#000000;stroke-width:0.09034607;stroke-linecap:round;stroke-linejoin:miter;stroke-miterlimit:4;stroke-dasharray:none;stroke-opacity:1"
       d="m 99.99973,205.1299 c -0.883779,3.81394 0.90346,4.83459 0.90346,4.83459 h -0.60231 c 0,0 -1.282534,-0.96426 -0.644879,-4.82698 0.505839,-3.06418 2.654119,-3.43794 3.767329,-1.38586 0.0623,0.1149 0.0947,0.32829 0.0914,0.58767 -0.20228,-0.11288 -0.20228,-0.11288 -0.3272,0.0565 -0.002,-0.19274 -0.0303,-0.35654 -0.0807,-0.46453 -0.69789,-1.4956 -2.41656,-1.78143 -3.107116,1.19864 z"
       id="path817-3-6-9-0-7"
       inkscape:connector-curvature="0"
       sodipodi:nodetypes="sccssccss" />
    <path
       style="fill:#000000;fill-opacity:1;stroke:#000000;stroke-width:0.09034607;stroke-linecap:round;stroke-linejoin:miter;stroke-miterlimit:4;stroke-dasharray:none;stroke-opacity:1"
       d="m 81.478897,202.48407 c -0.883779,3.81394 0.90346,4.83459 0.90346,4.83459 h -0.60231 c 0,0 -1.282534,-0.96426 -0.644879,-4.82698 0.505839,-3.06418 2.654119,-3.43794 3.767329,-1.38586 0.0623,0.1149 0.0947,0.32829 0.0914,0.58767 -0.202281,-0.11288 -0.202281,-0.11288 -0.3272,0.0565 -0.002,-0.19274 -0.0303,-0.35654 -0.0807,-0.46453 -0.697891,-1.4956 -2.41656,-1.78143 -3.107116,1.19864 z"
       id="path817-3-6-9-0-6"
       inkscape:connector-curvature="0"
       sodipodi:nodetypes="sccssccss" />
    <path
       style="fill:#000000;fill-opacity:1;stroke:#000000;stroke-width:0.09034607;stroke-linecap:round;stroke-linejoin:miter;stroke-miterlimit:4;stroke-dasharray:none;stroke-opacity:1"
       d="m 86.770563,215.24139 c -0.883779,-3.81394 0.90346,-4.83459 0.90346,-4.83459 h -0.60231 c 0,0 -1.282534,0.96426 -0.644879,4.82698 0.505839,3.06418 2.654119,3.43794 3.767329,1.38586 0.0623,-0.1149 0.0947,-0.32829 0.0914,-0.58767 -0.20228,0.11288 -0.20228,0.11288 -0.3272,-0.0565 -0.002,0.19274 -0.0303,0.35654 -0.0807,0.46453 -0.69789,1.4956 -2.41656,1.78143 -3.107116,-1.19864 z"
       id="path817-3-6-9-0-56"
       inkscape:connector-curvature="0"
       sodipodi:nodetypes="sccssccss" />
    <path
       style="fill:#000000;fill-opacity:1;stroke:#000000;stroke-width:0.09034607;stroke-linecap:round;stroke-linejoin:miter;stroke-miterlimit:4;stroke-dasharray:none;stroke-opacity:1"
       d="m 95.181277,193.72379 c -0.405507,1.51337 -0.963996,1.51503 1.155998,2.95673 h -0.602307 c -1.457153,-1.14981 -1.258314,-1.45097 -0.854845,-2.95673 0.24026,-0.96105 0.810187,-1.39673 1.189798,-1.30893 0.202859,0.0469 0.406738,0.19929 0.603639,0.4001 -0.0909,0.20269 0.01348,-0.0108 -0.104395,0.22092 -0.522784,-0.47301 -1.052955,-0.59797 -1.387888,0.68791 z"
       id="path817-6-7-5-7-3-9"
       inkscape:connector-curvature="0"
       sodipodi:nodetypes="ccccsccc" />
    <path
       style="fill:#000000;fill-opacity:1;stroke:#000000;stroke-width:0.09034607;stroke-linecap:round;stroke-linejoin:miter;stroke-miterlimit:4;stroke-dasharray:none;stroke-opacity:1"
       d="m 74.01461,212.24463 c -0.405507,1.51337 -0.963996,1.51503 1.155998,2.95673 h -0.602307 c -1.457153,-1.14981 -1.258314,-1.45097 -0.854845,-2.95673 0.24026,-0.96105 0.810187,-1.39673 1.189798,-1.30893 0.202859,0.0469 0.406738,0.19929 0.603639,0.4001 -0.0909,0.20269 0.01348,-0.0108 -0.104395,0.22092 -0.522784,-0.47301 -1.052955,-0.59797 -1.387888,0.68791 z"
       id="path817-6-7-5-7-3-3"
       inkscape:connector-curvature="0"
       sodipodi:nodetypes="ccccsccc" />
    <path
       style="fill:#000000;fill-opacity:1;stroke:#000000;stroke-width:0.09034607;stroke-linecap:round;stroke-linejoin:miter;stroke-miterlimit:4;stroke-dasharray:none;stroke-opacity:1"
       d="m 69.629322,216.52709 c 0.405507,-1.51337 0.963996,-1.51503 -1.155998,-2.95673 h 0.602307 c 1.457153,1.14981 1.258314,1.45097 0.854845,2.95673 -0.24026,0.96105 -0.810187,1.39673 -1.189798,1.30893 -0.202859,-0.0469 -0.406738,-0.19929 -0.603639,-0.4001 0.0909,-0.20269 -0.01348,0.0108 0.104395,-0.22092 0.522784,0.47301 1.052955,0.59797 1.387888,-0.68791 z"
       id="path817-6-7-5-7-3-7"
       inkscape:connector-curvature="0"
       sodipodi:nodetypes="ccccsccc" />
    <path
       style="fill:#000000;fill-opacity:1;stroke:#000000;stroke-width:0.09034607;stroke-linecap:round;stroke-linejoin:miter;stroke-miterlimit:4;stroke-dasharray:none;stroke-opacity:1"
       d="m 76.940008,201.65517 c 0,-3.915 0.90346,-4.83459 0.90346,-4.83459 h -0.602307 c 0,0 -0.644881,0.91199 -0.644881,4.82698 0,1.1422 -0.02201,2.12986 -0.05319,3.02326 0.09576,-0.004 0.09576,-0.004 0.274534,-0.0125 0.07182,-0.8876 0.122381,-1.86885 0.122381,-3.00314 z"
       id="path817-3-0-61-4"
       inkscape:connector-curvature="0"
       sodipodi:nodetypes="sccsccs" />
    <path
       style="fill:#000000;fill-opacity:1;stroke:#000000;stroke-width:0.09034607;stroke-linecap:round;stroke-linejoin:miter;stroke-miterlimit:4;stroke-dasharray:none;stroke-opacity:1"
       d="m 84.877508,194.54657 c 0,3.915 0.90346,4.83459 0.90346,4.83459 h -0.602307 c 0,0 -0.644881,-0.91199 -0.644881,-4.82698 0,-1.1422 -0.02201,-2.12986 -0.05319,-3.02326 0.09576,0.004 0.09576,0.004 0.274534,0.0125 0.07182,0.8876 0.122381,1.86885 0.122381,3.00314 z"
       id="path817-3-0-61-5"
       inkscape:connector-curvature="0"
       sodipodi:nodetypes="sccsccs" />
    <path
       style="fill:#000000;fill-opacity:1;stroke:#000000;stroke-width:0.09034607;stroke-linecap:round;stroke-linejoin:miter;stroke-miterlimit:4;stroke-dasharray:none;stroke-opacity:1"
       d="m 84.877508,207.77573 c 0,3.915 0.90346,4.83459 0.90346,4.83459 h -0.602307 c 0,0 -0.644881,-0.91199 -0.644881,-4.82698 0,-1.1422 -0.02201,-2.12986 -0.05319,-3.02326 0.09576,0.004 0.09576,0.004 0.274534,0.0125 0.07182,0.8876 0.122381,1.86885 0.122381,3.00314 z"
       id="path817-3-0-61-2"
       inkscape:connector-curvature="0"
       sodipodi:nodetypes="sccsccs" />
    <path
       style="fill:#000000;fill-opacity:1;stroke:#000000;stroke-width:0.09034607;stroke-linecap:round;stroke-linejoin:miter;stroke-miterlimit:4;stroke-dasharray:none;stroke-opacity:1"
       d="m 90.169175,215.71323 c 0,3.915 0.90346,4.83459 0.90346,4.83459 h -0.602307 c 0,0 -0.644881,-0.91199 -0.644881,-4.82698 0,-1.1422 -0.02201,-2.12986 -0.05319,-3.02326 0.09576,0.004 0.09576,0.004 0.274534,0.0125 0.07182,0.8876 0.122381,1.86885 0.122381,3.00314 z"
       id="path817-3-0-61-54"
       inkscape:connector-curvature="0"
       sodipodi:nodetypes="sccsccs" />
    <path
       style="fill:#000000;fill-opacity:1;stroke:#000000;stroke-width:0.09034607;stroke-linecap:round;stroke-linejoin:miter;stroke-miterlimit:4;stroke-dasharray:none;stroke-opacity:1"
       d="m 103.39834,212.23851 c 0,-3.915 0.90346,-4.83459 0.90346,-4.83459 h -0.60231 c 0,0 -0.64488,0.91199 -0.64488,4.82698 0,1.1422 -0.022,2.12986 -0.0532,3.02326 0.0958,-0.004 0.0958,-0.004 0.27454,-0.0125 0.0718,-0.8876 0.12238,-1.86885 0.12238,-3.00314 z"
       id="path817-3-0-61-7"
       inkscape:connector-curvature="0"
       sodipodi:nodetypes="sccsccs" />
    <path
       style="fill:#000000;fill-opacity:1;stroke:#000000;stroke-width:0.09034607;stroke-linecap:round;stroke-linejoin:miter;stroke-miterlimit:4;stroke-dasharray:none;stroke-opacity:1"
       d="m 87.523341,205.1299 c 0,3.915 0.90346,4.83459 0.90346,4.83459 h -0.602307 c 0,0 -0.644881,-0.91199 -0.644881,-4.82698 0,-1.1422 -0.02201,-2.12986 -0.05319,-3.02326 0.09576,0.004 0.09576,0.004 0.274534,0.0125 0.07182,0.8876 0.122381,1.86885 0.122381,3.00314 z"
       id="path817-3-0-61-44"
       inkscape:connector-curvature="0"
       sodipodi:nodetypes="sccsccs" />
    <path
       style="fill:#000000;fill-opacity:1;stroke:#000000;stroke-width:0.09034607;stroke-linecap:round;stroke-linejoin:miter;stroke-miterlimit:4;stroke-dasharray:none;stroke-opacity:1"
       d="m 91.824077,206.33924 c 0.405507,2.27006 1.307723,2.12875 -0.812275,3.57045 h 0.602308 c 2.059462,-1.75212 0.957164,-1.30039 0.553694,-3.55904 -0.101269,-0.60761 -0.229022,-1.10738 -0.376051,-1.52159 -0.226255,-3.2e-4 -0.226255,-3.2e-4 -0.36321,-0.004 0.154373,0.40583 0.28909,0.90158 0.395534,1.51456 z"
       id="path817-6-7-2-0-3"
       inkscape:connector-curvature="0"
       sodipodi:nodetypes="ccccccc" />
    <path
       style="fill:#000000;fill-opacity:1;stroke:#000000;stroke-width:0.09034607;stroke-linecap:round;stroke-linejoin:miter;stroke-miterlimit:4;stroke-dasharray:none;stroke-opacity:1"
       d="m 81.327828,216.33121 c -0.405507,-2.27006 -1.307723,-2.12875 0.812275,-3.57045 h -0.602308 c -2.059462,1.75212 -0.957164,1.30039 -0.553694,3.55904 0.101269,0.60761 0.229022,1.10738 0.376051,1.52159 0.226255,3.2e-4 0.226255,3.2e-4 0.36321,0.004 -0.154373,-0.40583 -0.28909,-0.90158 -0.395534,-1.51456 z"
       id="path817-6-7-2-0-0"
       inkscape:connector-curvature="0"
       sodipodi:nodetypes="ccccccc" />
    <path
       style="fill:#000000;fill-opacity:1;stroke:#000000;stroke-width:0.09034607;stroke-linecap:round;stroke-linejoin:miter;stroke-miterlimit:4;stroke-dasharray:none;stroke-opacity:1"
       d="m 73.390328,208.98507 c -0.405507,2.27006 -1.307723,2.12875 0.812275,3.57045 h -0.602308 c -2.059462,-1.75212 -0.957164,-1.30039 -0.553694,-3.55904 0.101269,-0.60761 0.229022,-1.10738 0.376051,-1.52159 0.226255,-3.2e-4 0.226255,-3.2e-4 0.36321,-0.004 -0.154373,0.40583 -0.28909,0.90158 -0.395534,1.51456 z"
       id="path817-6-7-2-0-7"
       inkscape:connector-curvature="0"
       sodipodi:nodetypes="ccccccc" />
    <path
       style="fill:#000000;fill-opacity:1;stroke:#000000;stroke-width:0.09034607;stroke-linecap:round;stroke-linejoin:miter;stroke-miterlimit:4;stroke-dasharray:none;stroke-opacity:1"
       d="m 65.365744,216.33121 c 0.405507,-2.27006 1.307723,-2.12875 -0.812275,-3.57045 h 0.602308 c 2.059462,1.75212 0.957164,1.30039 0.553694,3.55904 -0.101269,0.60761 -0.229022,1.10738 -0.376051,1.52159 -0.226255,3.2e-4 -0.226255,3.2e-4 -0.36321,0.004 0.154373,-0.40583 0.28909,-0.90158 0.395534,-1.51456 z"
       id="path817-6-7-2-0-8"
       inkscape:connector-curvature="0"
       sodipodi:nodetypes="ccccccc" />
    <path
       style="fill:#000000;fill-opacity:1;stroke:#000000;stroke-width:0.09034607;stroke-linecap:round;stroke-linejoin:miter;stroke-miterlimit:4;stroke-dasharray:none;stroke-opacity:1"
       d="m 94.556994,219.56841 c -0.405507,2.27006 -1.307723,2.12875 0.812275,3.57045 h -0.602308 c -2.059462,-1.75212 -0.957164,-1.30039 -0.553694,-3.55904 0.101269,-0.60761 0.229022,-1.10738 0.376051,-1.52159 0.226255,-3.2e-4 0.226255,-3.2e-4 0.36321,-0.004 -0.154373,0.40583 -0.28909,0.90158 -0.395534,1.51456 z"
       id="path817-6-7-2-0-6"
       inkscape:connector-curvature="0"
       sodipodi:nodetypes="ccccccc" />
    <path
       style="fill:#000000;fill-opacity:1;stroke:#000000;stroke-width:0.09034607;stroke-linecap:round;stroke-linejoin:miter;stroke-miterlimit:4;stroke-dasharray:none;stroke-opacity:1"
       d="m 107.78616,206.33924 c -0.40551,2.27006 -1.30772,2.12875 0.81228,3.57045 h -0.60231 c -2.05946,-1.75212 -0.95717,-1.30039 -0.5537,-3.55904 0.10127,-0.60761 0.22903,-1.10738 0.37605,-1.52159 0.22626,-3.2e-4 0.22626,-3.2e-4 0.36321,-0.004 -0.15437,0.40583 -0.28909,0.90158 -0.39553,1.51456 z"
       id="path817-6-7-2-0-88"
       inkscape:connector-curvature="0"
       sodipodi:nodetypes="ccccccc" />
    <path
       style="fill:#000000;fill-opacity:1;stroke:#000000;stroke-width:0.09034607;stroke-linecap:round;stroke-linejoin:miter;stroke-miterlimit:4;stroke-dasharray:none;stroke-opacity:1"
       d="m 99.848661,193.11007 c -0.405507,2.27006 -1.307723,2.12875 0.812279,3.57045 h -0.60231 c -2.059464,-1.75212 -0.957166,-1.30039 -0.553696,-3.55904 0.101269,-0.60761 0.229022,-1.10738 0.376051,-1.52159 0.226255,-3.2e-4 0.226255,-3.2e-4 0.363205,-0.004 -0.15437,0.40583 -0.289085,0.90158 -0.395529,1.51456 z"
       id="path817-6-7-2-0-4"
       inkscape:connector-curvature="0"
       sodipodi:nodetypes="ccccccc" />
    <path
       style="fill:#000000;fill-opacity:1;stroke:#000000;stroke-width:0.09034607;stroke-linecap:square;stroke-linejoin:miter;stroke-miterlimit:4;stroke-dasharray:none;stroke-opacity:1"
       d="m 94.018137,209.8354 c 0,1.68581 0.859582,1.61789 1.241118,2.67317 0.50452,1.39542 -0.590198,2.69279 -0.590198,2.69279 h 0.602306 c 0,0 0.0021,-0.003 0.0061,-0.0102 0.0801,-0.13455 0.914671,-1.57496 0.612097,-2.68295 -0.408982,-1.49764 -1.510555,-0.77289 -1.527714,-2.66521 -0.0021,-0.22818 0.0033,-0.4361 0.0152,-0.62589 -0.35893,-1.1e-4 -0.05778,-1.1e-4 -0.335623,0.002 -0.01523,0.18724 -0.02331,0.39206 -0.02331,0.61651 z"
       id="path817-6-1-5-3"
       inkscape:connector-curvature="0"
       sodipodi:nodetypes="ssccsssccss" />
    <path
       style="fill:#000000;fill-opacity:1;stroke:#000000;stroke-width:0.09034607;stroke-linecap:square;stroke-linejoin:miter;stroke-miterlimit:4;stroke-dasharray:none;stroke-opacity:1"
       d="m 82.726473,215.12706 c 0,1.68581 -0.859582,1.61789 -1.241119,2.67317 -0.504519,1.39542 0.590199,2.69279 0.590199,2.69279 h -0.602307 c 0,0 -0.0021,-0.003 -0.0061,-0.0102 -0.0801,-0.13455 -0.91467,-1.57496 -0.612096,-2.68295 0.408982,-1.49764 1.510555,-0.77289 1.527714,-2.66521 0.0021,-0.22818 -0.0033,-0.4361 -0.0152,-0.62589 0.35893,-1.1e-4 0.05778,-1.1e-4 0.335623,0.002 0.01523,0.18724 0.02331,0.39206 0.02331,0.61651 z"
       id="path817-6-1-5-1"
       inkscape:connector-curvature="0"
       sodipodi:nodetypes="ssccsssccss" />
    <path
       style="fill:#000000;fill-opacity:1;stroke:#000000;stroke-width:0.09034607;stroke-linecap:square;stroke-linejoin:miter;stroke-miterlimit:4;stroke-dasharray:none;stroke-opacity:1"
       d="m 80.08064,193.9604 c 0,1.68581 -0.859582,1.61789 -1.241119,2.67317 -0.504519,1.39542 0.590199,2.69279 0.590199,2.69279 h -0.602307 c 0,0 -0.0021,-0.003 -0.0061,-0.0102 -0.0801,-0.13455 -0.91467,-1.57496 -0.612096,-2.68295 0.408982,-1.49764 1.510555,-0.77289 1.527714,-2.66521 0.0021,-0.22818 -0.0033,-0.4361 -0.0152,-0.62589 0.35893,-1.1e-4 0.05778,-1.1e-4 0.335623,0.002 0.01523,0.18724 0.02331,0.39206 0.02331,0.61651 z"
       id="path817-6-1-5-4"
       inkscape:connector-curvature="0"
       sodipodi:nodetypes="ssccsssccss" />
    <path
       style="fill:#000000;fill-opacity:1;stroke:#000000;stroke-width:0.09034607;stroke-linecap:square;stroke-linejoin:miter;stroke-miterlimit:4;stroke-dasharray:none;stroke-opacity:1"
       d="m 88.726471,191.31456 c 0,1.68581 0.859582,1.61789 1.241119,2.67317 0.504519,1.39542 -0.590199,2.69279 -0.590199,2.69279 h 0.602307 c 0,0 0.0021,-0.003 0.0061,-0.0102 0.0801,-0.13455 0.91467,-1.57496 0.612096,-2.68295 -0.408982,-1.49764 -1.510555,-0.77289 -1.527714,-2.66521 -0.0021,-0.22818 0.0033,-0.4361 0.0152,-0.62589 -0.35893,-1.1e-4 -0.05778,-1.1e-4 -0.335623,0.002 -0.01523,0.18724 -0.02331,0.39206 -0.02331,0.61651 z"
       id="path817-6-1-5-9"
       inkscape:connector-curvature="0"
       sodipodi:nodetypes="ssccsssccss" />
    <path
       style="fill:#000000;fill-opacity:1;stroke:#000000;stroke-width:0.09034607;stroke-linecap:square;stroke-linejoin:miter;stroke-miterlimit:4;stroke-dasharray:none;stroke-opacity:1"
       d="m 95.955639,206.64545 c 0,-1.68581 -0.859582,-1.61789 -1.241118,-2.67317 -0.50452,-1.39542 0.590198,-2.69279 0.590198,-2.69279 h -0.602306 c 0,0 -0.0021,0.003 -0.0061,0.0102 -0.0801,0.13455 -0.914671,1.57496 -0.612097,2.68295 0.408982,1.49764 1.510555,0.77289 1.527714,2.66521 0.0021,0.22818 -0.0033,0.4361 -0.0152,0.62589 0.35893,1.1e-4 0.05778,1.1e-4 0.335623,-0.002 0.01523,-0.18724 0.02331,-0.39206 0.02331,-0.61651 z"
       id="path817-6-1-5-2"
       inkscape:connector-curvature="0"
       sodipodi:nodetypes="ssccsssccss" />
    <path
       style="fill:#000000;fill-opacity:1;stroke:#000000;stroke-width:0.09034607;stroke-linecap:square;stroke-linejoin:miter;stroke-miterlimit:4;stroke-dasharray:none;stroke-opacity:1"
       d="m 77.434806,209.29128 c 0,-1.68581 -0.859582,-1.61789 -1.241119,-2.67317 -0.504519,-1.39542 0.590199,-2.69279 0.590199,-2.69279 h -0.602307 c 0,0 -0.0021,0.003 -0.0061,0.0102 -0.0801,0.13455 -0.91467,1.57496 -0.612096,2.68295 0.408982,1.49764 1.510555,0.77289 1.527714,2.66521 0.0021,0.22818 -0.0033,0.4361 -0.0152,0.62589 0.35893,1.1e-4 0.05778,1.1e-4 0.335623,-0.002 0.01523,-0.18724 0.02331,-0.39206 0.02331,-0.61651 z"
       id="path817-6-1-5-0"
       inkscape:connector-curvature="0"
       sodipodi:nodetypes="ssccsssccss" />
    <path
       style="fill:#000000;fill-opacity:1;stroke:#000000;stroke-width:0.09034607;stroke-linecap:round;stroke-linejoin:miter;stroke-miterlimit:4;stroke-dasharray:none;stroke-opacity:1"
       d="m 108.41044,201.66129 c -0.4055,1.51337 -0.96399,1.51503 1.156,2.95673 h -0.60231 c -1.45715,-1.14981 -1.25831,-1.45097 -0.85484,-2.95673 0.24026,-0.96105 0.81019,-1.39673 1.1898,-1.30893 0.20286,0.0469 0.40674,0.19929 0.60364,0.4001 -0.0909,0.20269 0.0135,-0.0108 -0.1044,0.22092 -0.52278,-0.47301 -1.05295,-0.59797 -1.38789,0.68791 z"
       id="path817-6-7-5-7-3-9-6"
       inkscape:connector-curvature="0"
       sodipodi:nodetypes="ccccsccc" />
    <path
       style="fill:#000000;fill-opacity:1;stroke:#000000;stroke-width:0.09034607;stroke-linecap:round;stroke-linejoin:miter;stroke-miterlimit:4;stroke-dasharray:none;stroke-opacity:1"
       d="m 87.243777,220.18212 c -0.405507,1.51337 -0.963996,1.51503 1.155998,2.95673 h -0.602307 c -1.457153,-1.14981 -1.258314,-1.45097 -0.854845,-2.95673 0.24026,-0.96105 0.810187,-1.39673 1.189798,-1.30893 0.202859,0.0469 0.406738,0.19929 0.603639,0.4001 -0.0909,0.20269 0.01348,-0.0108 -0.104395,0.22092 -0.522784,-0.47301 -1.052955,-0.59797 -1.387888,0.68791 z"
       id="path817-6-7-5-7-3-9-8"
       inkscape:connector-curvature="0"
       sodipodi:nodetypes="ccccsccc" />
    <path
       style="fill:#000000;fill-opacity:1;stroke:#000000;stroke-width:0.09034607;stroke-linecap:round;stroke-linejoin:miter;stroke-miterlimit:4;stroke-dasharray:none;stroke-opacity:1"
       d="m 72.275155,217.53629 c 0.405507,1.51337 0.963996,1.51503 -1.155998,2.95673 h 0.602307 c 1.457153,-1.14981 1.258314,-1.45097 0.854845,-2.95673 -0.24026,-0.96105 -0.810187,-1.39673 -1.189798,-1.30893 -0.202859,0.0469 -0.406738,0.19929 -0.603639,0.4001 0.0909,0.20269 -0.01348,-0.0108 0.104395,0.22092 0.522784,-0.47301 1.052955,-0.59797 1.387888,0.68791 z"
       id="path817-6-7-5-7-3-9-9"
       inkscape:connector-curvature="0"
       sodipodi:nodetypes="ccccsccc" />
    <path
       style="fill:#000000;fill-opacity:1;stroke:#000000;stroke-width:0.09034607;stroke-linecap:round;stroke-linejoin:miter;stroke-miterlimit:4;stroke-dasharray:none;stroke-opacity:1"
       d="m 114.60849,191.07796 c 0.40551,1.51337 0.964,1.51503 -1.156,2.95673 h 0.60231 c 1.45715,-1.14981 1.25831,-1.45097 0.85484,-2.95673 -0.24026,-0.96105 -0.81018,-1.39673 -1.18979,-1.30893 -0.20286,0.0469 -0.40674,0.19929 -0.60364,0.4001 0.0909,0.20269 -0.0135,-0.0108 0.10439,0.22092 0.52279,-0.47301 1.05296,-0.59797 1.38789,0.68791 z"
       id="path817-6-7-5-7-3-9-2"
       inkscape:connector-curvature="0"
       sodipodi:nodetypes="ccccsccc" />
    <path
       style="fill:#000000;fill-opacity:1;stroke:#000000;stroke-width:0.09034607;stroke-linecap:round;stroke-linejoin:miter;stroke-miterlimit:4;stroke-dasharray:none;stroke-opacity:1"
       d="m 113.70211,199.01546 c -0.40551,1.51337 -0.964,1.51503 1.156,2.95673 h -0.60231 c -1.45715,-1.14981 -1.25831,-1.45097 -0.85484,-2.95673 0.24026,-0.96105 0.81018,-1.39673 1.18979,-1.30893 0.20286,0.0469 0.40674,0.19929 0.60364,0.4001 -0.0909,0.20269 0.0135,-0.0108 -0.10439,0.22092 -0.52279,-0.47301 -1.05296,-0.59797 -1.38789,0.68791 z"
       id="path817-6-7-5-7-3-9-66"
       inkscape:connector-curvature="0"
       sodipodi:nodetypes="ccccsccc" />
    <path
       style="fill:#000000;fill-opacity:1;stroke:#000000;stroke-width:0.09034607;stroke-linecap:round;stroke-linejoin:miter;stroke-miterlimit:4;stroke-dasharray:none;stroke-opacity:1"
       d="m 103.11878,191.07796 c -0.40551,1.51337 -0.964,1.51503 1.15599,2.95673 h -0.6023 c -1.45716,-1.14981 -1.25832,-1.45097 -0.85485,-2.95673 0.24026,-0.96105 0.81019,-1.39673 1.1898,-1.30893 0.20286,0.0469 0.40674,0.19929 0.60364,0.4001 -0.0909,0.20269 0.0135,-0.0108 -0.1044,0.22092 -0.52278,-0.47301 -1.05295,-0.59797 -1.38788,0.68791 z"
       id="path817-6-7-5-7-3-9-4"
       inkscape:connector-curvature="0"
       sodipodi:nodetypes="ccccsccc" />
    <path
       style="fill:#000000;fill-opacity:1;stroke:#000000;stroke-width:0.09034607;stroke-linecap:round;stroke-linejoin:miter;stroke-miterlimit:4;stroke-dasharray:none;stroke-opacity:1"
       d="m 81.95211,191.07796 c -0.405507,1.51337 -0.963996,1.51503 1.155998,2.95673 h -0.602307 c -1.457153,-1.14981 -1.258314,-1.45097 -0.854845,-2.95673 0.24026,-0.96105 0.810187,-1.39673 1.189798,-1.30893 0.202859,0.0469 0.406738,0.19929 0.603639,0.4001 -0.0909,0.20269 0.01348,-0.0108 -0.104395,0.22092 -0.522784,-0.47301 -1.052955,-0.59797 -1.387888,0.68791 z"
       id="path817-6-7-5-7-3-9-95"
       inkscape:connector-curvature="0"
       sodipodi:nodetypes="ccccsccc" />
    <path
       style="fill:#000000;fill-opacity:1;stroke:#000000;stroke-width:0.09034607;stroke-linecap:round;stroke-linejoin:miter;stroke-miterlimit:4;stroke-dasharray:none;stroke-opacity:1"
       d="m 79.306277,188.43212 c -0.405507,1.51337 -0.963996,1.51503 1.155998,2.95673 h -0.602307 c -1.457153,-1.14981 -1.258314,-1.45097 -0.854845,-2.95673 0.24026,-0.96105 0.810187,-1.39673 1.189798,-1.30893 0.202859,0.0469 0.406738,0.19929 0.603639,0.4001 -0.0909,0.20269 0.01348,-0.0108 -0.104395,0.22092 -0.522784,-0.47301 -1.052955,-0.59797 -1.387888,0.68791 z"
       id="path817-6-7-5-7-3-9-0"
       inkscape:connector-curvature="0"
       sodipodi:nodetypes="ccccsccc" />
    <path
       style="fill:#000000;fill-opacity:1;stroke:#000000;stroke-width:0.09034607;stroke-linecap:square;stroke-linejoin:miter;stroke-miterlimit:4;stroke-dasharray:none;stroke-opacity:1"
       d="m 77.434806,217.77289 c 0,1.68581 -0.859582,1.61789 -1.241119,2.67317 -0.504519,1.39542 0.590199,2.69279 0.590199,2.69279 h -0.602307 c 0,0 -0.0021,-0.003 -0.0061,-0.0102 -0.0801,-0.13455 -0.91467,-1.57496 -0.612096,-2.68295 0.408982,-1.49764 1.510555,-0.77289 1.527714,-2.66521 0.0021,-0.22818 -0.0033,-0.4361 -0.0152,-0.62589 0.35893,-1.1e-4 0.05778,-1.1e-4 0.335623,0.002 0.01523,0.18724 0.02331,0.39206 0.02331,0.61651 z"
       id="path817-6-1-5-1-8"
       inkscape:connector-curvature="0"
       sodipodi:nodetypes="ssccsssccss" />
    <path
       style="fill:#000000;fill-opacity:1;stroke:#000000;stroke-width:0.09034607;stroke-linecap:square;stroke-linejoin:miter;stroke-miterlimit:4;stroke-dasharray:none;stroke-opacity:1"
       d="m 85.372306,220.41873 c 0,1.68581 -0.859582,1.61789 -1.241119,2.67317 -0.504519,1.39542 0.590199,2.69279 0.590199,2.69279 h -0.602307 c 0,0 -0.0021,-0.003 -0.0061,-0.0102 -0.0801,-0.13455 -0.91467,-1.57496 -0.612096,-2.68295 0.408982,-1.49764 1.510555,-0.77289 1.527714,-2.66521 0.0021,-0.22818 -0.0033,-0.4361 -0.0152,-0.62589 0.35893,-1.1e-4 0.05778,-1.1e-4 0.335623,0.002 0.01523,0.18724 0.02331,0.39206 0.02331,0.61651 z"
       id="path817-6-1-5-1-7"
       inkscape:connector-curvature="0"
       sodipodi:nodetypes="ssccsssccss" />
    <path
       style="fill:#000000;fill-opacity:1;stroke:#000000;stroke-width:0.09034607;stroke-linecap:round;stroke-linejoin:miter;stroke-miterlimit:4;stroke-dasharray:none;stroke-opacity:1"
       d="m 66.983488,219.17292 c 0.405507,-1.51337 0.963996,-1.51503 -1.155998,-2.95673 h 0.602307 c 1.457153,1.14981 1.258314,1.45097 0.854845,2.95673 -0.24026,0.96105 -0.810187,1.39673 -1.189798,1.30893 -0.202859,-0.0469 -0.406738,-0.19929 -0.603639,-0.4001 0.0909,-0.20269 -0.01348,0.0108 0.104395,-0.22092 0.522784,0.47301 1.052955,0.59797 1.387888,-0.68791 z"
       id="path817-6-7-5-7-3-7-1"
       inkscape:connector-curvature="0"
       sodipodi:nodetypes="ccccsccc" />
    <path
       style="fill:#000000;fill-opacity:1;stroke:#000000;stroke-width:0.09034607;stroke-linecap:round;stroke-linejoin:miter;stroke-miterlimit:4;stroke-dasharray:none;stroke-opacity:1"
       d="m 59.045988,219.17292 c 0.405507,-1.51337 0.963996,-1.51503 -1.155998,-2.95673 h 0.602307 c 1.457153,1.14981 1.258314,1.45097 0.854845,2.95673 -0.24026,0.96105 -0.810187,1.39673 -1.189798,1.30893 -0.202859,-0.0469 -0.406738,-0.19929 -0.603639,-0.4001 0.0909,-0.20269 -0.01348,0.0108 0.104395,-0.22092 0.522784,0.47301 1.052955,0.59797 1.387888,-0.68791 z"
       id="path817-6-7-5-7-3-7-7"
       inkscape:connector-curvature="0"
       sodipodi:nodetypes="ccccsccc" />
    <path
       style="fill:#000000;fill-opacity:1;stroke:#000000;stroke-width:0.09034607;stroke-linecap:round;stroke-linejoin:miter;stroke-miterlimit:4;stroke-dasharray:none;stroke-opacity:1"
       d="m 106.04417,212.23851 c 0,-3.915 0.90346,-4.83459 0.90346,-4.83459 h -0.60231 c 0,0 -0.64488,0.91199 -0.64488,4.82698 0,1.1422 -0.022,2.12986 -0.0532,3.02326 0.0958,-0.004 0.0958,-0.004 0.27454,-0.0125 0.0718,-0.8876 0.12238,-1.86885 0.12238,-3.00314 z"
       id="path817-3-0-61-7-2"
       inkscape:connector-curvature="0"
       sodipodi:nodetypes="sccsccs" />
    <path
       style="fill:#000000;fill-opacity:1;stroke:#000000;stroke-width:0.09034607;stroke-linecap:round;stroke-linejoin:miter;stroke-miterlimit:4;stroke-dasharray:none;stroke-opacity:1"
       d="m 103.39834,220.17601 c 0,-3.915 0.90346,-4.83459 0.90346,-4.83459 h -0.60231 c 0,0 -0.64488,0.91199 -0.64488,4.82698 0,1.1422 -0.022,2.12986 -0.0532,3.02326 0.0958,-0.004 0.0958,-0.004 0.27454,-0.0125 0.0718,-0.8876 0.12238,-1.86885 0.12238,-3.00314 z"
       id="path817-3-0-61-7-7"
       inkscape:connector-curvature="0"
       sodipodi:nodetypes="sccsccs" />
  </g>
</svg>
