<?xml version="1.0" encoding="UTF-8" standalone="no"?>
<!DOCTYPE svg PUBLIC "-//W3C//DTD SVG 1.1//EN"
 "http://www.w3.org/Graphics/SVG/1.1/DTD/svg11.dtd">
<!-- Generated by graphviz version 2.40.1 (20161225.0304)
 -->
<!-- Title: G Pages: 1 -->
<svg width="785pt" height="559pt"
 viewBox="0.00 0.00 785.20 559.16" xmlns="http://www.w3.org/2000/svg" xmlns:xlink="http://www.w3.org/1999/xlink">
<g id="graph0" class="graph" transform="scale(1 1) rotate(0) translate(21.6 537.5553)">
<title>G</title>
<polygon fill="#111111" stroke="transparent" points="-21.6,21.6 -21.6,-537.5553 763.6,-537.5553 763.6,21.6 -21.6,21.6"/>
<!-- App.tsx -->
<g id="node1" class="node">
<title>App.tsx</title>
<path fill="none" stroke="#c6c5fe" d="M57.3333,-237.9553C57.3333,-237.9553 7.6667,-237.9553 7.6667,-237.9553 3.8333,-237.9553 0,-234.122 0,-230.2887 0,-230.2887 0,-222.622 0,-222.622 0,-218.7887 3.8333,-214.9553 7.6667,-214.9553 7.6667,-214.9553 57.3333,-214.9553 57.3333,-214.9553 61.1667,-214.9553 65,-218.7887 65,-222.622 65,-222.622 65,-230.2887 65,-230.2887 65,-234.122 61.1667,-237.9553 57.3333,-237.9553"/>
<text text-anchor="middle" x="32.5" y="-222.7553" font-family="Arial" font-size="14.00" fill="#c6c5fe">App.tsx</text>
</g>
<!-- components/Hairs.tsx -->
<g id="node2" class="node">
<title>components/Hairs.tsx</title>
<path fill="none" stroke="#c6c5fe" d="M250.3333,-217.9553C250.3333,-217.9553 108.6667,-217.9553 108.6667,-217.9553 104.8333,-217.9553 101,-214.122 101,-210.2887 101,-210.2887 101,-202.622 101,-202.622 101,-198.7887 104.8333,-194.9553 108.6667,-194.9553 108.6667,-194.9553 250.3333,-194.9553 250.3333,-194.9553 254.1667,-194.9553 258,-198.7887 258,-202.622 258,-202.622 258,-210.2887 258,-210.2887 258,-214.122 254.1667,-217.9553 250.3333,-217.9553"/>
<text text-anchor="middle" x="179.5" y="-202.7553" font-family="Arial" font-size="14.00" fill="#c6c5fe">components/Hairs.tsx</text>
</g>
<!-- App.tsx&#45;&gt;components/Hairs.tsx -->
<g id="edge1" class="edge">
<title>App.tsx&#45;&gt;components/Hairs.tsx</title>
<path fill="none" stroke="#757575" d="M65.1241,-222.0167C73.0129,-220.9434 81.8229,-219.7447 90.9568,-218.502"/>
<polygon fill="#757575" stroke="#757575" points="91.5299,-221.9564 100.9668,-217.1401 90.5862,-215.0203 91.5299,-221.9564"/>
</g>
<!-- components/Razor.tsx -->
<g id="node3" class="node">
<title>components/Razor.tsx</title>
<path fill="none" stroke="#c6c5fe" d="M480.3333,-515.9553C480.3333,-515.9553 334.6667,-515.9553 334.6667,-515.9553 330.8333,-515.9553 327,-512.122 327,-508.2887 327,-508.2887 327,-500.622 327,-500.622 327,-496.7887 330.8333,-492.9553 334.6667,-492.9553 334.6667,-492.9553 480.3333,-492.9553 480.3333,-492.9553 484.1667,-492.9553 488,-496.7887 488,-500.622 488,-500.622 488,-508.2887 488,-508.2887 488,-512.122 484.1667,-515.9553 480.3333,-515.9553"/>
<text text-anchor="middle" x="407.5" y="-500.7553" font-family="Arial" font-size="14.00" fill="#c6c5fe">components/Razor.tsx</text>
</g>
<!-- App.tsx&#45;&gt;components/Razor.tsx -->
<g id="edge2" class="edge">
<title>App.tsx&#45;&gt;components/Razor.tsx</title>
<path fill="none" stroke="#757575" d="M34.9227,-238.0136C43.2808,-276.8552 71.991,-401.8015 101,-429.4553 158.3276,-484.1048 248.6615,-500.9482 316.4358,-505.2575"/>
<polygon fill="#757575" stroke="#757575" points="316.5091,-508.7669 326.6874,-505.8255 316.8964,-501.7776 316.5091,-508.7669"/>
</g>
<!-- drivers/HairCuts.ts -->
<g id="node4" class="node">
<title>drivers/HairCuts.ts</title>
<path fill="none" stroke="#c6c5fe" d="M467.3333,-433.9553C467.3333,-433.9553 347.6667,-433.9553 347.6667,-433.9553 343.8333,-433.9553 340,-430.122 340,-426.2887 340,-426.2887 340,-418.622 340,-418.622 340,-414.7887 343.8333,-410.9553 347.6667,-410.9553 347.6667,-410.9553 467.3333,-410.9553 467.3333,-410.9553 471.1667,-410.9553 475,-414.7887 475,-418.622 475,-418.622 475,-426.2887 475,-426.2887 475,-430.122 471.1667,-433.9553 467.3333,-433.9553"/>
<text text-anchor="middle" x="407.5" y="-418.7553" font-family="Arial" font-size="14.00" fill="#c6c5fe">drivers/HairCuts.ts</text>
</g>
<!-- App.tsx&#45;&gt;drivers/HairCuts.ts -->
<g id="edge3" class="edge">
<title>App.tsx&#45;&gt;drivers/HairCuts.ts</title>
<path fill="none" stroke="#757575" d="M37.0743,-237.9797C46.1252,-259.3745 68.3128,-305.4186 101,-331.4553 167.0756,-384.0874 262.9096,-406.3021 329.7686,-415.6639"/>
<polygon fill="#757575" stroke="#757575" points="329.453,-419.1527 339.8281,-417.0064 330.379,-412.2142 329.453,-419.1527"/>
</g>
<!-- drivers/HairLengths.ts -->
<g id="node5" class="node">
<title>drivers/HairLengths.ts</title>
<path fill="none" stroke="#cfffac" d="M478.8333,-474.9553C478.8333,-474.9553 336.1667,-474.9553 336.1667,-474.9553 332.3333,-474.9553 328.5,-471.122 328.5,-467.2887 328.5,-467.2887 328.5,-459.622 328.5,-459.622 328.5,-455.7887 332.3333,-451.9553 336.1667,-451.9553 336.1667,-451.9553 478.8333,-451.9553 478.8333,-451.9553 482.6667,-451.9553 486.5,-455.7887 486.5,-459.622 486.5,-459.622 486.5,-467.2887 486.5,-467.2887 486.5,-471.122 482.6667,-474.9553 478.8333,-474.9553"/>
<text text-anchor="middle" x="407.5" y="-459.7553" font-family="Arial" font-size="14.00" fill="#cfffac">drivers/HairLengths.ts</text>
</g>
<!-- App.tsx&#45;&gt;drivers/HairLengths.ts -->
<g id="edge4" class="edge">
<title>App.tsx&#45;&gt;drivers/HairLengths.ts</title>
<path fill="none" stroke="#757575" d="M34.3439,-237.9872C39.494,-266.4215 56.673,-340.4743 101,-380.4553 160.3802,-434.0138 250.8719,-453.5255 318.1542,-460.3783"/>
<polygon fill="#757575" stroke="#757575" points="318.0409,-463.883 328.3251,-461.3364 318.6975,-456.9138 318.0409,-463.883"/>
</g>
<!-- drivers/HairPositions.ts -->
<g id="node6" class="node">
<title>drivers/HairPositions.ts</title>
<path fill="none" stroke="#c6c5fe" d="M481.8333,-392.9553C481.8333,-392.9553 333.1667,-392.9553 333.1667,-392.9553 329.3333,-392.9553 325.5,-389.122 325.5,-385.2887 325.5,-385.2887 325.5,-377.622 325.5,-377.622 325.5,-373.7887 329.3333,-369.9553 333.1667,-369.9553 333.1667,-369.9553 481.8333,-369.9553 481.8333,-369.9553 485.6667,-369.9553 489.5,-373.7887 489.5,-377.622 489.5,-377.622 489.5,-385.2887 489.5,-385.2887 489.5,-389.122 485.6667,-392.9553 481.8333,-392.9553"/>
<text text-anchor="middle" x="407.5" y="-377.7553" font-family="Arial" font-size="14.00" fill="#c6c5fe">drivers/HairPositions.ts</text>
</g>
<!-- App.tsx&#45;&gt;drivers/HairPositions.ts -->
<g id="edge5" class="edge">
<title>App.tsx&#45;&gt;drivers/HairPositions.ts</title>
<path fill="none" stroke="#757575" d="M43.6083,-238.325C56.3867,-251.3946 78.5132,-272.2955 101,-285.4553 173.7479,-328.029 267.45,-353.7969 331.9953,-367.7619"/>
<polygon fill="#757575" stroke="#757575" points="331.588,-371.2533 342.0964,-369.9026 333.0393,-364.4054 331.588,-371.2533"/>
</g>
<!-- drivers/HairRotations.ts -->
<g id="node7" class="node">
<title>drivers/HairRotations.ts</title>
<path fill="none" stroke="#c6c5fe" d="M483.3333,-34.9553C483.3333,-34.9553 331.6667,-34.9553 331.6667,-34.9553 327.8333,-34.9553 324,-31.122 324,-27.2887 324,-27.2887 324,-19.622 324,-19.622 324,-15.7887 327.8333,-11.9553 331.6667,-11.9553 331.6667,-11.9553 483.3333,-11.9553 483.3333,-11.9553 487.1667,-11.9553 491,-15.7887 491,-19.622 491,-19.622 491,-27.2887 491,-27.2887 491,-31.122 487.1667,-34.9553 483.3333,-34.9553"/>
<text text-anchor="middle" x="407.5" y="-19.7553" font-family="Arial" font-size="14.00" fill="#c6c5fe">drivers/HairRotations.ts</text>
</g>
<!-- App.tsx&#45;&gt;drivers/HairRotations.ts -->
<g id="edge6" class="edge">
<title>App.tsx&#45;&gt;drivers/HairRotations.ts</title>
<path fill="none" stroke="#757575" d="M35.1205,-214.7177C43.6523,-177.6301 71.7741,-64.1318 101,-42.4553 173.5003,11.3173 284.1656,2.2742 350.8026,-10.0169"/>
<polygon fill="#757575" stroke="#757575" points="350.2239,-13.4697 360.7058,-11.9274 351.5499,-6.5964 350.2239,-13.4697"/>
</g>
<!-- drivers/Hairs.ts -->
<g id="node8" class="node">
<title>drivers/Hairs.ts</title>
<path fill="none" stroke="#c6c5fe" d="M228.3333,-276.9553C228.3333,-276.9553 130.6667,-276.9553 130.6667,-276.9553 126.8333,-276.9553 123,-273.122 123,-269.2887 123,-269.2887 123,-261.622 123,-261.622 123,-257.7887 126.8333,-253.9553 130.6667,-253.9553 130.6667,-253.9553 228.3333,-253.9553 228.3333,-253.9553 232.1667,-253.9553 236,-257.7887 236,-261.622 236,-261.622 236,-269.2887 236,-269.2887 236,-273.122 232.1667,-276.9553 228.3333,-276.9553"/>
<text text-anchor="middle" x="179.5" y="-261.7553" font-family="Arial" font-size="14.00" fill="#c6c5fe">drivers/Hairs.ts</text>
</g>
<!-- App.tsx&#45;&gt;drivers/Hairs.ts -->
<g id="edge7" class="edge">
<title>App.tsx&#45;&gt;drivers/Hairs.ts</title>
<path fill="none" stroke="#757575" d="M65.1241,-235.1107C83.0785,-239.8741 105.8045,-245.9034 126.2596,-251.3303"/>
<polygon fill="#757575" stroke="#757575" points="125.5248,-254.7564 136.0879,-253.9378 127.3199,-247.9905 125.5248,-254.7564"/>
</g>
<!-- drivers/Socket.ts -->
<g id="node9" class="node">
<title>drivers/Socket.ts</title>
<path fill="none" stroke="#cfffac" d="M233.8333,-115.9553C233.8333,-115.9553 125.1667,-115.9553 125.1667,-115.9553 121.3333,-115.9553 117.5,-112.122 117.5,-108.2887 117.5,-108.2887 117.5,-100.622 117.5,-100.622 117.5,-96.7887 121.3333,-92.9553 125.1667,-92.9553 125.1667,-92.9553 233.8333,-92.9553 233.8333,-92.9553 237.6667,-92.9553 241.5,-96.7887 241.5,-100.622 241.5,-100.622 241.5,-108.2887 241.5,-108.2887 241.5,-112.122 237.6667,-115.9553 233.8333,-115.9553"/>
<text text-anchor="middle" x="179.5" y="-100.7553" font-family="Arial" font-size="14.00" fill="#cfffac">drivers/Socket.ts</text>
</g>
<!-- App.tsx&#45;&gt;drivers/Socket.ts -->
<g id="edge8" class="edge">
<title>App.tsx&#45;&gt;drivers/Socket.ts</title>
<path fill="none" stroke="#757575" d="M37.7204,-214.8899C47.3617,-194.8032 69.8563,-153.4231 101,-130.4553 106.5118,-126.3905 112.6951,-122.9378 119.1084,-120.0102"/>
<polygon fill="#757575" stroke="#757575" points="120.7087,-123.1362 128.6177,-116.0865 118.0387,-116.6654 120.7087,-123.1362"/>
</g>
<!-- styles/App.css -->
<g id="node10" class="node">
<title>styles/App.css</title>
<path fill="none" stroke="#cfffac" d="M226.8333,-74.9553C226.8333,-74.9553 132.1667,-74.9553 132.1667,-74.9553 128.3333,-74.9553 124.5,-71.122 124.5,-67.2887 124.5,-67.2887 124.5,-59.622 124.5,-59.622 124.5,-55.7887 128.3333,-51.9553 132.1667,-51.9553 132.1667,-51.9553 226.8333,-51.9553 226.8333,-51.9553 230.6667,-51.9553 234.5,-55.7887 234.5,-59.622 234.5,-59.622 234.5,-67.2887 234.5,-67.2887 234.5,-71.122 230.6667,-74.9553 226.8333,-74.9553"/>
<text text-anchor="middle" x="179.5" y="-59.7553" font-family="Arial" font-size="14.00" fill="#cfffac">styles/App.css</text>
</g>
<!-- App.tsx&#45;&gt;styles/App.css -->
<g id="edge9" class="edge">
<title>App.tsx&#45;&gt;styles/App.css</title>
<path fill="none" stroke="#757575" d="M34.618,-214.7576C40.2099,-187.3638 58,-118.712 101,-83.4553 105.1089,-80.0863 109.7148,-77.2761 114.5815,-74.9332"/>
<polygon fill="#757575" stroke="#757575" points="116.2814,-78.0186 124.1998,-70.9794 113.62,-71.5443 116.2814,-78.0186"/>
</g>
<!-- utilities/constants.ts -->
<g id="node11" class="node">
<title>utilities/constants.ts</title>
<path fill="none" stroke="#cfffac" d="M712.8333,-230.9553C712.8333,-230.9553 586.1667,-230.9553 586.1667,-230.9553 582.3333,-230.9553 578.5,-227.122 578.5,-223.2887 578.5,-223.2887 578.5,-215.622 578.5,-215.622 578.5,-211.7887 582.3333,-207.9553 586.1667,-207.9553 586.1667,-207.9553 712.8333,-207.9553 712.8333,-207.9553 716.6667,-207.9553 720.5,-211.7887 720.5,-215.622 720.5,-215.622 720.5,-223.2887 720.5,-223.2887 720.5,-227.122 716.6667,-230.9553 712.8333,-230.9553"/>
<text text-anchor="middle" x="649.5" y="-215.7553" font-family="Arial" font-size="14.00" fill="#cfffac">utilities/constants.ts</text>
</g>
<!-- App.tsx&#45;&gt;utilities/constants.ts -->
<g id="edge10" class="edge">
<title>App.tsx&#45;&gt;utilities/constants.ts</title>
<path fill="none" stroke="#757575" d="M50.067,-214.8151C63.6392,-206.1019 83.0721,-194.2256 101,-185.4553 168.2446,-152.5598 195.0141,-164.9117 258,-124.4553 276.7759,-112.3954 273.3237,-97.8497 294,-89.4553 387.4787,-51.5041 427.9032,-50.5766 521,-89.4553 528.0783,-92.4114 597.7834,-165.0777 631.4635,-200.4534"/>
<polygon fill="#757575" stroke="#757575" points="629.0167,-202.9594 638.4444,-207.7936 634.0891,-198.1353 629.0167,-202.9594"/>
</g>
<!-- components/Hairs.tsx&#45;&gt;utilities/constants.ts -->
<g id="edge13" class="edge">
<title>components/Hairs.tsx&#45;&gt;utilities/constants.ts</title>
<path fill="none" stroke="#757575" d="M201.8483,-194.8689C218.1461,-185.9367 240.3706,-172.7294 258,-158.4553 276.0808,-143.8157 272.6287,-129.6478 294,-120.4553 386.6791,-80.5911 425.4969,-87.9326 521,-120.4553 567.4653,-136.2787 610.2256,-176.4472 632.7869,-200.4752"/>
<polygon fill="#757575" stroke="#757575" points="630.301,-202.943 639.6399,-207.9466 635.4596,-198.2113 630.301,-202.943"/>
</g>
<!-- components/triangle&#45;geometry.ts -->
<g id="node12" class="node">
<title>components/triangle&#45;geometry.ts</title>
<path fill="none" stroke="#c6c5fe" d="M513.3333,-232.9553C513.3333,-232.9553 301.6667,-232.9553 301.6667,-232.9553 297.8333,-232.9553 294,-229.122 294,-225.2887 294,-225.2887 294,-217.622 294,-217.622 294,-213.7887 297.8333,-209.9553 301.6667,-209.9553 301.6667,-209.9553 513.3333,-209.9553 513.3333,-209.9553 517.1667,-209.9553 521,-213.7887 521,-217.622 521,-217.622 521,-225.2887 521,-225.2887 521,-229.122 517.1667,-232.9553 513.3333,-232.9553"/>
<text text-anchor="middle" x="407.5" y="-217.7553" font-family="Arial" font-size="14.00" fill="#c6c5fe">components/triangle&#45;geometry.ts</text>
</g>
<!-- components/Hairs.tsx&#45;&gt;components/triangle&#45;geometry.ts -->
<g id="edge11" class="edge">
<title>components/Hairs.tsx&#45;&gt;components/triangle&#45;geometry.ts</title>
<path fill="none" stroke="#757575" d="M258.2839,-211.6385C266.5177,-212.1802 275.0233,-212.7398 283.6042,-213.3043"/>
<polygon fill="#757575" stroke="#757575" points="283.492,-216.8044 293.7003,-213.9685 283.9516,-209.8195 283.492,-216.8044"/>
</g>
<!-- types/Viewport.tsx -->
<g id="node13" class="node">
<title>types/Viewport.tsx</title>
<path fill="none" stroke="#cfffac" d="M466.8333,-152.9553C466.8333,-152.9553 348.1667,-152.9553 348.1667,-152.9553 344.3333,-152.9553 340.5,-149.122 340.5,-145.2887 340.5,-145.2887 340.5,-137.622 340.5,-137.622 340.5,-133.7887 344.3333,-129.9553 348.1667,-129.9553 348.1667,-129.9553 466.8333,-129.9553 466.8333,-129.9553 470.6667,-129.9553 474.5,-133.7887 474.5,-137.622 474.5,-137.622 474.5,-145.2887 474.5,-145.2887 474.5,-149.122 470.6667,-152.9553 466.8333,-152.9553"/>
<text text-anchor="middle" x="407.5" y="-137.7553" font-family="Arial" font-size="14.00" fill="#cfffac">types/Viewport.tsx</text>
</g>
<!-- components/Hairs.tsx&#45;&gt;types/Viewport.tsx -->
<g id="edge12" class="edge">
<title>components/Hairs.tsx&#45;&gt;types/Viewport.tsx</title>
<path fill="none" stroke="#757575" d="M210.8147,-194.8134C233.6748,-186.5547 265.5167,-175.5453 294,-167.4553 309.3138,-163.1058 325.9464,-158.9719 341.6372,-155.3326"/>
<polygon fill="#757575" stroke="#757575" points="342.8187,-158.653 351.789,-153.0152 341.2608,-151.8285 342.8187,-158.653"/>
</g>
<!-- components/Razor.tsx&#45;&gt;utilities/constants.ts -->
<g id="edge15" class="edge">
<title>components/Razor.tsx&#45;&gt;utilities/constants.ts</title>
<path fill="none" stroke="#757575" d="M488.2052,-503.0767C500.5192,-499.4798 512.0753,-493.6383 521,-484.4553 597.705,-405.5304 481.8292,-319.8427 557,-239.4553 560.6243,-235.5795 564.8064,-232.3633 569.3479,-229.7019"/>
<polygon fill="#757575" stroke="#757575" points="571.0261,-232.7774 578.4721,-225.2404 567.9511,-226.4889 571.0261,-232.7774"/>
</g>
<!-- svgs/razor.svg -->
<g id="node14" class="node">
<title>svgs/razor.svg</title>
<path fill="none" stroke="#cfffac" d="M696.8333,-515.9553C696.8333,-515.9553 602.1667,-515.9553 602.1667,-515.9553 598.3333,-515.9553 594.5,-512.122 594.5,-508.2887 594.5,-508.2887 594.5,-500.622 594.5,-500.622 594.5,-496.7887 598.3333,-492.9553 602.1667,-492.9553 602.1667,-492.9553 696.8333,-492.9553 696.8333,-492.9553 700.6667,-492.9553 704.5,-496.7887 704.5,-500.622 704.5,-500.622 704.5,-508.2887 704.5,-508.2887 704.5,-512.122 700.6667,-515.9553 696.8333,-515.9553"/>
<text text-anchor="middle" x="649.5" y="-500.7553" font-family="Arial" font-size="14.00" fill="#cfffac">svgs/razor.svg</text>
</g>
<!-- components/Razor.tsx&#45;&gt;svgs/razor.svg -->
<g id="edge14" class="edge">
<title>components/Razor.tsx&#45;&gt;svgs/razor.svg</title>
<path fill="none" stroke="#757575" d="M488.0825,-504.4553C519.3231,-504.4553 554.6248,-504.4553 584.2308,-504.4553"/>
<polygon fill="#757575" stroke="#757575" points="584.4493,-507.9554 594.4493,-504.4553 584.4493,-500.9554 584.4493,-507.9554"/>
</g>
<!-- utilities/utilities.ts -->
<g id="node15" class="node">
<title>utilities/utilities.ts</title>
<path fill="none" stroke="#cfffac" d="M702.8333,-394.9553C702.8333,-394.9553 596.1667,-394.9553 596.1667,-394.9553 592.3333,-394.9553 588.5,-391.122 588.5,-387.2887 588.5,-387.2887 588.5,-379.622 588.5,-379.622 588.5,-375.7887 592.3333,-371.9553 596.1667,-371.9553 596.1667,-371.9553 702.8333,-371.9553 702.8333,-371.9553 706.6667,-371.9553 710.5,-375.7887 710.5,-379.622 710.5,-379.622 710.5,-387.2887 710.5,-387.2887 710.5,-391.122 706.6667,-394.9553 702.8333,-394.9553"/>
<text text-anchor="middle" x="649.5" y="-379.7553" font-family="Arial" font-size="14.00" fill="#cfffac">utilities/utilities.ts</text>
</g>
<!-- components/Razor.tsx&#45;&gt;utilities/utilities.ts -->
<g id="edge16" class="edge">
<title>components/Razor.tsx&#45;&gt;utilities/utilities.ts</title>
<path fill="none" stroke="#757575" d="M488.0508,-495.3515C499.3852,-492.6186 510.679,-489.0679 521,-484.4553 565.6878,-464.4839 608.4965,-425.5686 631.6682,-402.3072"/>
<polygon fill="#757575" stroke="#757575" points="634.2579,-404.665 638.748,-395.0686 629.2536,-399.7704 634.2579,-404.665"/>
</g>
<!-- drivers/HairCuts.ts&#45;&gt;utilities/utilities.ts -->
<g id="edge23" class="edge">
<title>drivers/HairCuts.ts&#45;&gt;utilities/utilities.ts</title>
<path fill="none" stroke="#757575" d="M475.2323,-411.5398C507.419,-406.3527 545.8886,-400.153 578.4858,-394.8998"/>
<polygon fill="#757575" stroke="#757575" points="579.0845,-398.3485 588.4002,-393.302 577.9707,-391.4377 579.0845,-398.3485"/>
</g>
<!-- drivers/HairPositions.ts&#45;&gt;utilities/utilities.ts -->
<g id="edge24" class="edge">
<title>drivers/HairPositions.ts&#45;&gt;utilities/utilities.ts</title>
<path fill="none" stroke="#757575" d="M489.7678,-382.1352C518.5685,-382.3732 550.642,-382.6383 578.4474,-382.8681"/>
<polygon fill="#757575" stroke="#757575" points="578.4558,-386.3682 588.4845,-382.9511 578.5138,-379.3684 578.4558,-386.3682"/>
</g>
<!-- drivers/HairRotations.ts&#45;&gt;utilities/constants.ts -->
<g id="edge26" class="edge">
<title>drivers/HairRotations.ts&#45;&gt;utilities/constants.ts</title>
<path fill="none" stroke="#757575" d="M491.0772,-33.5601C501.8486,-37.3728 512.1793,-42.5219 521,-49.4553 549.1278,-71.5648 536.5018,-92.1326 557,-121.4553 578.3005,-151.9258 608.7979,-182.3282 628.8675,-201.0067"/>
<polygon fill="#757575" stroke="#757575" points="626.5299,-203.6119 636.2627,-207.798 631.2647,-198.4561 626.5299,-203.6119"/>
</g>
<!-- drivers/Mouse.ts -->
<g id="node20" class="node">
<title>drivers/Mouse.ts</title>
<path fill="none" stroke="#cfffac" d="M703.3333,-112.9553C703.3333,-112.9553 595.6667,-112.9553 595.6667,-112.9553 591.8333,-112.9553 588,-109.122 588,-105.2887 588,-105.2887 588,-97.622 588,-97.622 588,-93.7887 591.8333,-89.9553 595.6667,-89.9553 595.6667,-89.9553 703.3333,-89.9553 703.3333,-89.9553 707.1667,-89.9553 711,-93.7887 711,-97.622 711,-97.622 711,-105.2887 711,-105.2887 711,-109.122 707.1667,-112.9553 703.3333,-112.9553"/>
<text text-anchor="middle" x="649.5" y="-97.7553" font-family="Arial" font-size="14.00" fill="#cfffac">drivers/Mouse.ts</text>
</g>
<!-- drivers/HairRotations.ts&#45;&gt;drivers/Mouse.ts -->
<g id="edge25" class="edge">
<title>drivers/HairRotations.ts&#45;&gt;drivers/Mouse.ts</title>
<path fill="none" stroke="#757575" d="M466.0099,-34.9878C483.825,-38.9986 503.3559,-43.9033 521,-49.4553 553.5699,-59.704 589.5064,-74.5641 615.0746,-85.7767"/>
<polygon fill="#757575" stroke="#757575" points="613.7768,-89.0297 624.3376,-89.8782 616.6109,-82.6291 613.7768,-89.0297"/>
</g>
<!-- drivers/Hairs.ts&#45;&gt;drivers/HairCuts.ts -->
<g id="edge28" class="edge">
<title>drivers/Hairs.ts&#45;&gt;drivers/HairCuts.ts</title>
<path fill="none" stroke="#757575" d="M185.4001,-276.9852C199.8454,-303.9273 239.8022,-371.0974 294,-402.4553 304.9324,-408.7806 317.3744,-413.2025 329.9168,-416.2752"/>
<polygon fill="#757575" stroke="#757575" points="329.4549,-419.7564 339.9702,-418.4607 330.942,-412.9162 329.4549,-419.7564"/>
</g>
<!-- drivers/Hairs.ts&#45;&gt;drivers/HairLengths.ts -->
<g id="edge29" class="edge">
<title>drivers/Hairs.ts&#45;&gt;drivers/HairLengths.ts</title>
<path fill="none" stroke="#757575" d="M183.3543,-277.4189C194.546,-310.0783 230.3571,-401.1374 294,-443.4553 301.525,-448.4589 309.9274,-452.3195 318.6636,-455.2846"/>
<polygon fill="#757575" stroke="#757575" points="317.6644,-458.6389 328.2485,-458.1624 319.6774,-451.9346 317.6644,-458.6389"/>
</g>
<!-- drivers/Hairs.ts&#45;&gt;drivers/HairPositions.ts -->
<g id="edge30" class="edge">
<title>drivers/Hairs.ts&#45;&gt;drivers/HairPositions.ts</title>
<path fill="none" stroke="#757575" d="M192.8901,-277.2135C218.0851,-299.1249 271.984,-344.9376 294,-355.4553 303.7758,-360.1256 314.433,-363.9799 325.1739,-367.1552"/>
<polygon fill="#757575" stroke="#757575" points="324.4675,-370.5912 335.0388,-369.8844 326.3341,-363.8446 324.4675,-370.5912"/>
</g>
<!-- drivers/Hairs.ts&#45;&gt;drivers/HairRotations.ts -->
<g id="edge31" class="edge">
<title>drivers/Hairs.ts&#45;&gt;drivers/HairRotations.ts</title>
<path fill="none" stroke="#757575" d="M217.0261,-253.8272C231.519,-247.7013 247.1808,-238.8271 258,-226.4553 290.7527,-189.0025 266.0914,-161.6447 294,-120.4553 316.7609,-86.8633 354.1261,-58.0831 379.7238,-40.7909"/>
<polygon fill="#757575" stroke="#757575" points="381.828,-43.5957 388.244,-35.1645 377.9706,-37.7544 381.828,-43.5957"/>
</g>
<!-- drivers/Hairs.ts&#45;&gt;utilities/constants.ts -->
<g id="edge34" class="edge">
<title>drivers/Hairs.ts&#45;&gt;utilities/constants.ts</title>
<path fill="none" stroke="#757575" d="M236.1623,-263.199C304.0455,-260.0977 421.129,-253.4838 521,-241.4553 540.0479,-239.1612 560.5701,-235.9743 579.5019,-232.7373"/>
<polygon fill="#757575" stroke="#757575" points="580.285,-236.1538 589.5375,-230.9921 579.0857,-229.2573 580.285,-236.1538"/>
</g>
<!-- drivers/Hairs.ts&#45;&gt;types/Viewport.tsx -->
<g id="edge33" class="edge">
<title>drivers/Hairs.ts&#45;&gt;types/Viewport.tsx</title>
<path fill="none" stroke="#757575" d="M212.5789,-253.9242C227.6505,-247.5104 244.9881,-238.3845 258,-226.4553 280.6426,-205.6968 269.0718,-185.405 294,-167.4553 304.785,-159.6895 317.5159,-154.1977 330.482,-150.3239"/>
<polygon fill="#757575" stroke="#757575" points="331.6593,-153.6321 340.4148,-147.6662 329.8499,-146.87 331.6593,-153.6321"/>
</g>
<!-- drivers/Hairs.ts&#45;&gt;utilities/utilities.ts -->
<g id="edge35" class="edge">
<title>drivers/Hairs.ts&#45;&gt;utilities/utilities.ts</title>
<path fill="none" stroke="#757575" d="M199.0495,-277.149C221.2888,-289.9371 259.06,-310.1176 294,-321.4553 297.3882,-322.5548 475.5258,-353.4081 578.3096,-371.1672"/>
<polygon fill="#757575" stroke="#757575" points="577.8678,-374.6427 588.3177,-372.8962 579.0595,-367.7449 577.8678,-374.6427"/>
</g>
<!-- drivers/FallingHair.ts -->
<g id="node16" class="node">
<title>drivers/FallingHair.ts</title>
<path fill="none" stroke="#c6c5fe" d="M472.8333,-312.9553C472.8333,-312.9553 342.1667,-312.9553 342.1667,-312.9553 338.3333,-312.9553 334.5,-309.122 334.5,-305.2887 334.5,-305.2887 334.5,-297.622 334.5,-297.622 334.5,-293.7887 338.3333,-289.9553 342.1667,-289.9553 342.1667,-289.9553 472.8333,-289.9553 472.8333,-289.9553 476.6667,-289.9553 480.5,-293.7887 480.5,-297.622 480.5,-297.622 480.5,-305.2887 480.5,-305.2887 480.5,-309.122 476.6667,-312.9553 472.8333,-312.9553"/>
<text text-anchor="middle" x="407.5" y="-297.7553" font-family="Arial" font-size="14.00" fill="#c6c5fe">drivers/FallingHair.ts</text>
</g>
<!-- drivers/Hairs.ts&#45;&gt;drivers/FallingHair.ts -->
<g id="edge27" class="edge">
<title>drivers/Hairs.ts&#45;&gt;drivers/FallingHair.ts</title>
<path fill="none" stroke="#757575" d="M236.1525,-274.4005C262.6969,-278.5917 294.8504,-283.6685 324.1011,-288.2871"/>
<polygon fill="#757575" stroke="#757575" points="323.8889,-291.7969 334.3124,-289.8994 324.9807,-284.8825 323.8889,-291.7969"/>
</g>
<!-- drivers/Hairs.ts&#45;&gt;drivers/Mouse.ts -->
<g id="edge32" class="edge">
<title>drivers/Hairs.ts&#45;&gt;drivers/Mouse.ts</title>
<path fill="none" stroke="#757575" d="M205.5231,-253.8447C221.087,-246.5796 241.0655,-236.6823 258,-226.4553 274.8947,-216.2524 275.8047,-208.1014 294,-200.4553 388.3732,-160.7978 423.3113,-192.0482 521,-161.4553 556.4182,-150.3635 594.68,-131.5305 620.156,-117.9188"/>
<polygon fill="#757575" stroke="#757575" points="622.1368,-120.8263 629.2613,-112.9846 618.8017,-114.6718 622.1368,-120.8263"/>
</g>
<!-- components/triangle&#45;geometry.ts&#45;&gt;utilities/constants.ts -->
<g id="edge17" class="edge">
<title>components/triangle&#45;geometry.ts&#45;&gt;utilities/constants.ts</title>
<path fill="none" stroke="#757575" d="M521.0598,-220.5168C536.9245,-220.3857 552.9605,-220.2532 568.0711,-220.1283"/>
<polygon fill="#757575" stroke="#757575" points="568.4004,-223.6258 578.3711,-220.0432 568.3425,-216.626 568.4004,-223.6258"/>
</g>
<!-- components/triangle&#45;geometry.ts&#45;&gt;utilities/utilities.ts -->
<g id="edge18" class="edge">
<title>components/triangle&#45;geometry.ts&#45;&gt;utilities/utilities.ts</title>
<path fill="none" stroke="#757575" d="M443.7625,-233.0127C468.2982,-242.4219 499.9508,-257.8755 521,-280.4553 548.418,-309.867 525.9183,-337.9461 557,-363.4553 563.3204,-368.6426 570.6791,-372.5689 578.4336,-375.5285"/>
<polygon fill="#757575" stroke="#757575" points="577.4526,-378.8901 588.0453,-378.6788 579.6328,-372.2383 577.4526,-378.8901"/>
</g>
<!-- drivers/FallingHair.ts&#45;&gt;utilities/constants.ts -->
<g id="edge20" class="edge">
<title>drivers/FallingHair.ts&#45;&gt;utilities/constants.ts</title>
<path fill="none" stroke="#757575" d="M480.5728,-291.0721C494.5208,-287.353 508.6177,-282.3052 521,-275.4553 540.7997,-264.5022 537.1336,-250.287 557,-239.4553 560.7326,-237.4203 564.6556,-235.5922 568.6924,-233.9502"/>
<polygon fill="#757575" stroke="#757575" points="570.0905,-237.1658 578.2821,-230.4465 567.6883,-230.5909 570.0905,-237.1658"/>
</g>
<!-- utilities/buckets.ts -->
<g id="node17" class="node">
<title>utilities/buckets.ts</title>
<path fill="none" stroke="#cfffac" d="M706.8333,-271.9553C706.8333,-271.9553 592.1667,-271.9553 592.1667,-271.9553 588.3333,-271.9553 584.5,-268.122 584.5,-264.2887 584.5,-264.2887 584.5,-256.622 584.5,-256.622 584.5,-252.7887 588.3333,-248.9553 592.1667,-248.9553 592.1667,-248.9553 706.8333,-248.9553 706.8333,-248.9553 710.6667,-248.9553 714.5,-252.7887 714.5,-256.622 714.5,-256.622 714.5,-264.2887 714.5,-264.2887 714.5,-268.122 710.6667,-271.9553 706.8333,-271.9553"/>
<text text-anchor="middle" x="649.5" y="-256.7553" font-family="Arial" font-size="14.00" fill="#cfffac">utilities/buckets.ts</text>
</g>
<!-- drivers/FallingHair.ts&#45;&gt;utilities/buckets.ts -->
<g id="edge19" class="edge">
<title>drivers/FallingHair.ts&#45;&gt;utilities/buckets.ts</title>
<path fill="none" stroke="#757575" d="M475.5545,-289.9254C506.3345,-284.7106 542.8083,-278.5312 574.3871,-273.1811"/>
<polygon fill="#757575" stroke="#757575" points="575.1797,-276.5967 584.4545,-271.4754 574.0103,-269.6951 575.1797,-276.5967"/>
</g>
<!-- utilities/easing&#45;functions.ts -->
<g id="node18" class="node">
<title>utilities/easing&#45;functions.ts</title>
<path fill="none" stroke="#cfffac" d="M734.3333,-353.9553C734.3333,-353.9553 564.6667,-353.9553 564.6667,-353.9553 560.8333,-353.9553 557,-350.122 557,-346.2887 557,-346.2887 557,-338.622 557,-338.622 557,-334.7887 560.8333,-330.9553 564.6667,-330.9553 564.6667,-330.9553 734.3333,-330.9553 734.3333,-330.9553 738.1667,-330.9553 742,-334.7887 742,-338.622 742,-338.622 742,-346.2887 742,-346.2887 742,-350.122 738.1667,-353.9553 734.3333,-353.9553"/>
<text text-anchor="middle" x="649.5" y="-338.7553" font-family="Arial" font-size="14.00" fill="#cfffac">utilities/easing&#45;functions.ts</text>
</g>
<!-- drivers/FallingHair.ts&#45;&gt;utilities/easing&#45;functions.ts -->
<g id="edge21" class="edge">
<title>drivers/FallingHair.ts&#45;&gt;utilities/easing&#45;functions.ts</title>
<path fill="none" stroke="#757575" d="M475.5545,-312.9852C505.4515,-318.0504 540.7202,-324.0257 571.6574,-329.2671"/>
<polygon fill="#757575" stroke="#757575" points="571.0933,-332.7213 581.5374,-330.941 572.2626,-325.8197 571.0933,-332.7213"/>
</g>
<!-- utilities/fifo.ts -->
<g id="node19" class="node">
<title>utilities/fifo.ts</title>
<path fill="none" stroke="#cfffac" d="M690.8333,-312.9553C690.8333,-312.9553 608.1667,-312.9553 608.1667,-312.9553 604.3333,-312.9553 600.5,-309.122 600.5,-305.2887 600.5,-305.2887 600.5,-297.622 600.5,-297.622 600.5,-293.7887 604.3333,-289.9553 608.1667,-289.9553 608.1667,-289.9553 690.8333,-289.9553 690.8333,-289.9553 694.6667,-289.9553 698.5,-293.7887 698.5,-297.622 698.5,-297.622 698.5,-305.2887 698.5,-305.2887 698.5,-309.122 694.6667,-312.9553 690.8333,-312.9553"/>
<text text-anchor="middle" x="649.5" y="-297.7553" font-family="Arial" font-size="14.00" fill="#cfffac">utilities/fifo.ts</text>
</g>
<!-- drivers/FallingHair.ts&#45;&gt;utilities/fifo.ts -->
<g id="edge22" class="edge">
<title>drivers/FallingHair.ts&#45;&gt;utilities/fifo.ts</title>
<path fill="none" stroke="#757575" d="M480.7647,-301.4553C515.6619,-301.4553 556.8679,-301.4553 589.8238,-301.4553"/>
<polygon fill="#757575" stroke="#757575" points="590.2155,-304.9554 600.2155,-301.4553 590.2154,-297.9554 590.2155,-304.9554"/>
</g>
</g>
</svg>
