<?xml version="1.0" encoding="UTF-8" standalone="no"?>
<!DOCTYPE svg PUBLIC "-//W3C//DTD SVG 1.1//EN"
 "http://www.w3.org/Graphics/SVG/1.1/DTD/svg11.dtd">
<!-- Generated by graphviz version 2.40.1 (20161225.0304)
 -->
<!-- Title: G Pages: 1 -->
<svg width="785pt" height="513pt"
 viewBox="0.00 0.00 785.20 513.41" xmlns="http://www.w3.org/2000/svg" xmlns:xlink="http://www.w3.org/1999/xlink">
<g id="graph0" class="graph" transform="scale(1 1) rotate(0) translate(21.6 491.8134)">
<title>G</title>
<polygon fill="#111111" stroke="transparent" points="-21.6,21.6 -21.6,-491.8134 763.6,-491.8134 763.6,21.6 -21.6,21.6"/>
<!-- App.tsx -->
<g id="node1" class="node">
<title>App.tsx</title>
<path fill="none" stroke="#c6c5fe" d="M57.3333,-306C57.3333,-306 7.6667,-306 7.6667,-306 3.8333,-306 0,-302.1667 0,-298.3333 0,-298.3333 0,-290.6667 0,-290.6667 0,-286.8333 3.8333,-283 7.6667,-283 7.6667,-283 57.3333,-283 57.3333,-283 61.1667,-283 65,-286.8333 65,-290.6667 65,-290.6667 65,-298.3333 65,-298.3333 65,-302.1667 61.1667,-306 57.3333,-306"/>
<text text-anchor="middle" x="32.5" y="-290.8" font-family="Arial" font-size="14.00" fill="#c6c5fe">App.tsx</text>
</g>
<!-- components/Hairs.tsx -->
<g id="node2" class="node">
<title>components/Hairs.tsx</title>
<path fill="none" stroke="#c6c5fe" d="M250.3333,-306C250.3333,-306 108.6667,-306 108.6667,-306 104.8333,-306 101,-302.1667 101,-298.3333 101,-298.3333 101,-290.6667 101,-290.6667 101,-286.8333 104.8333,-283 108.6667,-283 108.6667,-283 250.3333,-283 250.3333,-283 254.1667,-283 258,-286.8333 258,-290.6667 258,-290.6667 258,-298.3333 258,-298.3333 258,-302.1667 254.1667,-306 250.3333,-306"/>
<text text-anchor="middle" x="179.5" y="-290.8" font-family="Arial" font-size="14.00" fill="#c6c5fe">components/Hairs.tsx</text>
</g>
<!-- App.tsx&#45;&gt;components/Hairs.tsx -->
<g id="edge1" class="edge">
<title>App.tsx&#45;&gt;components/Hairs.tsx</title>
<path fill="none" stroke="#757575" d="M65.1241,-294.5C73.0129,-294.5 81.8229,-294.5 90.9568,-294.5"/>
<polygon fill="#757575" stroke="#757575" points="90.9668,-298.0001 100.9668,-294.5 90.9667,-291.0001 90.9668,-298.0001"/>
</g>
<!-- components/Razor.tsx -->
<g id="node3" class="node">
<title>components/Razor.tsx</title>
<path fill="none" stroke="#c6c5fe" d="M480.3333,-146C480.3333,-146 334.6667,-146 334.6667,-146 330.8333,-146 327,-142.1667 327,-138.3333 327,-138.3333 327,-130.6667 327,-130.6667 327,-126.8333 330.8333,-123 334.6667,-123 334.6667,-123 480.3333,-123 480.3333,-123 484.1667,-123 488,-126.8333 488,-130.6667 488,-130.6667 488,-138.3333 488,-138.3333 488,-142.1667 484.1667,-146 480.3333,-146"/>
<text text-anchor="middle" x="407.5" y="-130.8" font-family="Arial" font-size="14.00" fill="#c6c5fe">components/Razor.tsx</text>
</g>
<!-- App.tsx&#45;&gt;components/Razor.tsx -->
<g id="edge2" class="edge">
<title>App.tsx&#45;&gt;components/Razor.tsx</title>
<path fill="none" stroke="#757575" d="M43.4766,-282.6713C56.1369,-269.721 78.158,-249.2392 101,-237.5 165.1428,-204.535 196.6251,-234.3697 258,-196.5 278.6374,-183.7663 272.9147,-167.4775 294,-155.5 301.2637,-151.3738 309.1715,-148.0346 317.321,-145.3354"/>
<polygon fill="#757575" stroke="#757575" points="318.3946,-148.6676 326.9747,-142.4521 316.3913,-141.9604 318.3946,-148.6676"/>
</g>
<!-- drivers/HairCuts.ts -->
<g id="node4" class="node">
<title>drivers/HairCuts.ts</title>
<path fill="none" stroke="#c6c5fe" d="M467.3333,-385C467.3333,-385 347.6667,-385 347.6667,-385 343.8333,-385 340,-381.1667 340,-377.3333 340,-377.3333 340,-369.6667 340,-369.6667 340,-365.8333 343.8333,-362 347.6667,-362 347.6667,-362 467.3333,-362 467.3333,-362 471.1667,-362 475,-365.8333 475,-369.6667 475,-369.6667 475,-377.3333 475,-377.3333 475,-381.1667 471.1667,-385 467.3333,-385"/>
<text text-anchor="middle" x="407.5" y="-369.8" font-family="Arial" font-size="14.00" fill="#c6c5fe">drivers/HairCuts.ts</text>
</g>
<!-- App.tsx&#45;&gt;drivers/HairCuts.ts -->
<g id="edge3" class="edge">
<title>App.tsx&#45;&gt;drivers/HairCuts.ts</title>
<path fill="none" stroke="#757575" d="M65.0471,-305.2822C76.3541,-308.813 89.166,-312.5758 101,-315.5 178.0692,-334.5438 267.374,-350.7955 329.6318,-361.2086"/>
<polygon fill="#757575" stroke="#757575" points="329.3329,-364.7068 339.7713,-362.8928 330.48,-357.8014 329.3329,-364.7068"/>
</g>
<!-- drivers/HairLengths.ts -->
<g id="node5" class="node">
<title>drivers/HairLengths.ts</title>
<path fill="none" stroke="#cfffac" d="M478.8333,-467C478.8333,-467 336.1667,-467 336.1667,-467 332.3333,-467 328.5,-463.1667 328.5,-459.3333 328.5,-459.3333 328.5,-451.6667 328.5,-451.6667 328.5,-447.8333 332.3333,-444 336.1667,-444 336.1667,-444 478.8333,-444 478.8333,-444 482.6667,-444 486.5,-447.8333 486.5,-451.6667 486.5,-451.6667 486.5,-459.3333 486.5,-459.3333 486.5,-463.1667 482.6667,-467 478.8333,-467"/>
<text text-anchor="middle" x="407.5" y="-451.8" font-family="Arial" font-size="14.00" fill="#cfffac">drivers/HairLengths.ts</text>
</g>
<!-- App.tsx&#45;&gt;drivers/HairLengths.ts -->
<g id="edge4" class="edge">
<title>App.tsx&#45;&gt;drivers/HairLengths.ts</title>
<path fill="none" stroke="#757575" d="M34.6685,-306.1432C40.2829,-332.66 57.9713,-397.4885 101,-426.5 166.7591,-470.8371 259.2593,-473.5197 325.4087,-467.9399"/>
<polygon fill="#757575" stroke="#757575" points="325.7444,-471.4238 335.3805,-467.0197 325.1012,-464.4535 325.7444,-471.4238"/>
</g>
<!-- drivers/HairPositions.ts -->
<g id="node6" class="node">
<title>drivers/HairPositions.ts</title>
<path fill="none" stroke="#c6c5fe" d="M481.8333,-426C481.8333,-426 333.1667,-426 333.1667,-426 329.3333,-426 325.5,-422.1667 325.5,-418.3333 325.5,-418.3333 325.5,-410.6667 325.5,-410.6667 325.5,-406.8333 329.3333,-403 333.1667,-403 333.1667,-403 481.8333,-403 481.8333,-403 485.6667,-403 489.5,-406.8333 489.5,-410.6667 489.5,-410.6667 489.5,-418.3333 489.5,-418.3333 489.5,-422.1667 485.6667,-426 481.8333,-426"/>
<text text-anchor="middle" x="407.5" y="-410.8" font-family="Arial" font-size="14.00" fill="#c6c5fe">drivers/HairPositions.ts</text>
</g>
<!-- App.tsx&#45;&gt;drivers/HairPositions.ts -->
<g id="edge5" class="edge">
<title>App.tsx&#45;&gt;drivers/HairPositions.ts</title>
<path fill="none" stroke="#757575" d="M36.4503,-306.1587C44.5843,-328.1223 65.4809,-375.2397 101,-395.5 172.2122,-436.1199 268.4626,-434.7963 333.9771,-427.2621"/>
<polygon fill="#757575" stroke="#757575" points="334.7202,-430.6972 344.2194,-426.005 333.8674,-423.7494 334.7202,-430.6972"/>
</g>
<!-- drivers/HairRotations.ts -->
<g id="node7" class="node">
<title>drivers/HairRotations.ts</title>
<path fill="none" stroke="#c6c5fe" d="M483.3333,-226C483.3333,-226 331.6667,-226 331.6667,-226 327.8333,-226 324,-222.1667 324,-218.3333 324,-218.3333 324,-210.6667 324,-210.6667 324,-206.8333 327.8333,-203 331.6667,-203 331.6667,-203 483.3333,-203 483.3333,-203 487.1667,-203 491,-206.8333 491,-210.6667 491,-210.6667 491,-218.3333 491,-218.3333 491,-222.1667 487.1667,-226 483.3333,-226"/>
<text text-anchor="middle" x="407.5" y="-210.8" font-family="Arial" font-size="14.00" fill="#c6c5fe">drivers/HairRotations.ts</text>
</g>
<!-- App.tsx&#45;&gt;drivers/HairRotations.ts -->
<g id="edge6" class="edge">
<title>App.tsx&#45;&gt;drivers/HairRotations.ts</title>
<path fill="none" stroke="#757575" d="M65.0995,-284.3701C76.4107,-281.0185 89.2119,-277.4064 101,-274.5 177.6737,-255.5959 266.3088,-238.7816 328.4787,-227.7979"/>
<polygon fill="#757575" stroke="#757575" points="329.3654,-231.1958 338.609,-226.0183 328.1543,-224.3014 329.3654,-231.1958"/>
</g>
<!-- drivers/Socket.ts -->
<g id="node8" class="node">
<title>drivers/Socket.ts</title>
<path fill="none" stroke="#c6c5fe" d="M233.8333,-386C233.8333,-386 125.1667,-386 125.1667,-386 121.3333,-386 117.5,-382.1667 117.5,-378.3333 117.5,-378.3333 117.5,-370.6667 117.5,-370.6667 117.5,-366.8333 121.3333,-363 125.1667,-363 125.1667,-363 233.8333,-363 233.8333,-363 237.6667,-363 241.5,-366.8333 241.5,-370.6667 241.5,-370.6667 241.5,-378.3333 241.5,-378.3333 241.5,-382.1667 237.6667,-386 233.8333,-386"/>
<text text-anchor="middle" x="179.5" y="-370.8" font-family="Arial" font-size="14.00" fill="#c6c5fe">drivers/Socket.ts</text>
</g>
<!-- App.tsx&#45;&gt;drivers/Socket.ts -->
<g id="edge7" class="edge">
<title>App.tsx&#45;&gt;drivers/Socket.ts</title>
<path fill="none" stroke="#757575" d="M44.6867,-306.2929C57.7047,-318.338 79.3975,-336.8744 101,-348.5 108.8075,-352.7017 117.4165,-356.3893 125.9859,-359.5663"/>
<polygon fill="#757575" stroke="#757575" points="125.0046,-362.931 135.5994,-362.9364 127.3204,-356.3252 125.0046,-362.931"/>
</g>
<!-- styles/App.css -->
<g id="node9" class="node">
<title>styles/App.css</title>
<path fill="none" stroke="#cfffac" d="M226.8333,-188C226.8333,-188 132.1667,-188 132.1667,-188 128.3333,-188 124.5,-184.1667 124.5,-180.3333 124.5,-180.3333 124.5,-172.6667 124.5,-172.6667 124.5,-168.8333 128.3333,-165 132.1667,-165 132.1667,-165 226.8333,-165 226.8333,-165 230.6667,-165 234.5,-168.8333 234.5,-172.6667 234.5,-172.6667 234.5,-180.3333 234.5,-180.3333 234.5,-184.1667 230.6667,-188 226.8333,-188"/>
<text text-anchor="middle" x="179.5" y="-172.8" font-family="Arial" font-size="14.00" fill="#cfffac">styles/App.css</text>
</g>
<!-- App.tsx&#45;&gt;styles/App.css -->
<g id="edge8" class="edge">
<title>App.tsx&#45;&gt;styles/App.css</title>
<path fill="none" stroke="#757575" d="M38.1664,-282.8027C48.1742,-263.3398 70.8082,-224.2972 101,-202.5 106.6309,-198.4348 112.9367,-194.9775 119.4614,-192.0436"/>
<polygon fill="#757575" stroke="#757575" points="121.1821,-195.1221 129.1242,-188.1097 118.5426,-188.6388 121.1821,-195.1221"/>
</g>
<!-- utilities/constants.ts -->
<g id="node10" class="node">
<title>utilities/constants.ts</title>
<path fill="none" stroke="#cfffac" d="M712.8333,-187C712.8333,-187 586.1667,-187 586.1667,-187 582.3333,-187 578.5,-183.1667 578.5,-179.3333 578.5,-179.3333 578.5,-171.6667 578.5,-171.6667 578.5,-167.8333 582.3333,-164 586.1667,-164 586.1667,-164 712.8333,-164 712.8333,-164 716.6667,-164 720.5,-167.8333 720.5,-171.6667 720.5,-171.6667 720.5,-179.3333 720.5,-179.3333 720.5,-183.1667 716.6667,-187 712.8333,-187"/>
<text text-anchor="middle" x="649.5" y="-171.8" font-family="Arial" font-size="14.00" fill="#cfffac">utilities/constants.ts</text>
</g>
<!-- App.tsx&#45;&gt;utilities/constants.ts -->
<g id="edge9" class="edge">
<title>App.tsx&#45;&gt;utilities/constants.ts</title>
<path fill="none" stroke="#757575" d="M34.7279,-282.6213C40.4673,-255.5014 58.4005,-188.808 101,-155.5 170.1556,-101.4281 206.718,-122.8872 294,-113.5 394.3104,-102.7116 429.0914,-71.8903 521,-113.5 543.0912,-123.5013 536.1603,-142.1002 557,-154.5 560.6618,-156.6788 564.5284,-158.6317 568.5209,-160.3821"/>
<polygon fill="#757575" stroke="#757575" points="567.4407,-163.718 578.0283,-164.11 569.996,-157.201 567.4407,-163.718"/>
</g>
<!-- components/Hairs.tsx&#45;&gt;drivers/HairCuts.ts -->
<g id="edge16" class="edge">
<title>components/Hairs.tsx&#45;&gt;drivers/HairCuts.ts</title>
<path fill="none" stroke="#757575" d="M222.8997,-306.102C234.6088,-309.9693 247.0581,-314.7803 258,-320.5 275.7245,-329.7652 275.8571,-339.0837 294,-347.5 305.2866,-352.7357 317.7065,-356.9568 330.0625,-360.3484"/>
<polygon fill="#757575" stroke="#757575" points="329.378,-363.7863 339.9352,-362.8941 331.1259,-357.008 329.378,-363.7863"/>
</g>
<!-- components/Hairs.tsx&#45;&gt;drivers/HairLengths.ts -->
<g id="edge17" class="edge">
<title>components/Hairs.tsx&#45;&gt;drivers/HairLengths.ts</title>
<path fill="none" stroke="#757575" d="M199.842,-306.0284C217.2002,-316.7192 241.8455,-334.0342 258,-354.5 282.4086,-385.4228 262.9626,-411.2373 294,-435.5 301.351,-441.2464 309.79,-445.563 318.6768,-448.7799"/>
<polygon fill="#757575" stroke="#757575" points="317.876,-452.1969 328.4653,-451.8546 319.9738,-445.5186 317.876,-452.1969"/>
</g>
<!-- components/Hairs.tsx&#45;&gt;drivers/HairPositions.ts -->
<g id="edge18" class="edge">
<title>components/Hairs.tsx&#45;&gt;drivers/HairPositions.ts</title>
<path fill="none" stroke="#757575" d="M196.4475,-306.0655C212.8486,-317.5721 238.0827,-336.1194 258,-354.5 275.5767,-370.7206 273.0819,-382.9034 294,-394.5 300.7673,-398.2517 308.08,-401.3262 315.6191,-403.8427"/>
<polygon fill="#757575" stroke="#757575" points="314.6813,-407.2154 325.2655,-406.7407 316.6953,-400.5114 314.6813,-407.2154"/>
</g>
<!-- components/Hairs.tsx&#45;&gt;drivers/HairRotations.ts -->
<g id="edge19" class="edge">
<title>components/Hairs.tsx&#45;&gt;drivers/HairRotations.ts</title>
<path fill="none" stroke="#757575" d="M225.3381,-282.9156C236.4308,-279.1525 247.9718,-274.3877 258,-268.5 276.7175,-257.5106 274.5748,-245.1836 294,-235.5 300.4116,-232.3038 307.2458,-229.5908 314.2597,-227.2883"/>
<polygon fill="#757575" stroke="#757575" points="315.3379,-230.619 323.9126,-224.3962 313.3288,-223.9135 315.3379,-230.619"/>
</g>
<!-- components/Hairs.tsx&#45;&gt;utilities/constants.ts -->
<g id="edge21" class="edge">
<title>components/Hairs.tsx&#45;&gt;utilities/constants.ts</title>
<path fill="none" stroke="#757575" d="M194.6845,-282.9625C210.8187,-270.5117 236.8641,-249.8589 258,-230.5 274.9194,-215.0031 273.0958,-202.9569 294,-193.5 381.3842,-153.9679 493.4754,-155.7528 568.1991,-163.2874"/>
<polygon fill="#757575" stroke="#757575" points="568.1736,-166.8045 578.4885,-164.3851 568.9162,-159.844 568.1736,-166.8045"/>
</g>
<!-- components/FallingHair.tsx -->
<g id="node11" class="node">
<title>components/FallingHair.tsx</title>
<path fill="none" stroke="#c6c5fe" d="M495.3333,-66C495.3333,-66 319.6667,-66 319.6667,-66 315.8333,-66 312,-62.1667 312,-58.3333 312,-58.3333 312,-50.6667 312,-50.6667 312,-46.8333 315.8333,-43 319.6667,-43 319.6667,-43 495.3333,-43 495.3333,-43 499.1667,-43 503,-46.8333 503,-50.6667 503,-50.6667 503,-58.3333 503,-58.3333 503,-62.1667 499.1667,-66 495.3333,-66"/>
<text text-anchor="middle" x="407.5" y="-50.8" font-family="Arial" font-size="14.00" fill="#c6c5fe">components/FallingHair.tsx</text>
</g>
<!-- components/Hairs.tsx&#45;&gt;components/FallingHair.tsx -->
<g id="edge14" class="edge">
<title>components/Hairs.tsx&#45;&gt;components/FallingHair.tsx</title>
<path fill="none" stroke="#757575" d="M190.5217,-282.8964C206.8263,-265.2916 237.636,-230.2955 258,-196.5 278.7525,-162.0598 266.582,-142.9116 294,-113.5 312.418,-93.7427 338.9543,-79.4413 361.7376,-69.8713"/>
<polygon fill="#757575" stroke="#757575" points="363.2615,-73.0311 371.2375,-66.0574 360.6535,-66.5351 363.2615,-73.0311"/>
</g>
<!-- components/triangle&#45;geometry.ts -->
<g id="node15" class="node">
<title>components/triangle&#45;geometry.ts</title>
<path fill="none" stroke="#c6c5fe" d="M513.3333,-267C513.3333,-267 301.6667,-267 301.6667,-267 297.8333,-267 294,-263.1667 294,-259.3333 294,-259.3333 294,-251.6667 294,-251.6667 294,-247.8333 297.8333,-244 301.6667,-244 301.6667,-244 513.3333,-244 513.3333,-244 517.1667,-244 521,-247.8333 521,-251.6667 521,-251.6667 521,-259.3333 521,-259.3333 521,-263.1667 517.1667,-267 513.3333,-267"/>
<text text-anchor="middle" x="407.5" y="-251.8" font-family="Arial" font-size="14.00" fill="#c6c5fe">components/triangle&#45;geometry.ts</text>
</g>
<!-- components/Hairs.tsx&#45;&gt;components/triangle&#45;geometry.ts -->
<g id="edge15" class="edge">
<title>components/Hairs.tsx&#45;&gt;components/triangle&#45;geometry.ts</title>
<path fill="none" stroke="#757575" d="M246.9821,-282.957C273.0639,-278.4956 303.0669,-273.3636 330.0234,-268.7526"/>
<polygon fill="#757575" stroke="#757575" points="330.9244,-272.1494 340.1911,-267.0134 329.7441,-265.2496 330.9244,-272.1494"/>
</g>
<!-- drivers/Mouse.ts -->
<g id="node16" class="node">
<title>drivers/Mouse.ts</title>
<path fill="none" stroke="#cfffac" d="M703.3333,-266C703.3333,-266 595.6667,-266 595.6667,-266 591.8333,-266 588,-262.1667 588,-258.3333 588,-258.3333 588,-250.6667 588,-250.6667 588,-246.8333 591.8333,-243 595.6667,-243 595.6667,-243 703.3333,-243 703.3333,-243 707.1667,-243 711,-246.8333 711,-250.6667 711,-250.6667 711,-258.3333 711,-258.3333 711,-262.1667 707.1667,-266 703.3333,-266"/>
<text text-anchor="middle" x="649.5" y="-250.8" font-family="Arial" font-size="14.00" fill="#cfffac">drivers/Mouse.ts</text>
</g>
<!-- components/Hairs.tsx&#45;&gt;drivers/Mouse.ts -->
<g id="edge20" class="edge">
<title>components/Hairs.tsx&#45;&gt;drivers/Mouse.ts</title>
<path fill="none" stroke="#757575" d="M258.042,-292.9657C327.3967,-290.9906 431.1658,-286.5229 521,-276.5 540.5382,-274.3201 561.611,-271.0868 580.9278,-267.7659"/>
<polygon fill="#757575" stroke="#757575" points="581.6062,-271.2004 590.8517,-266.0264 580.3976,-264.3055 581.6062,-271.2004"/>
</g>
<!-- utilities/utilities.ts -->
<g id="node17" class="node">
<title>utilities/utilities.ts</title>
<path fill="none" stroke="#cfffac" d="M702.8333,-345C702.8333,-345 596.1667,-345 596.1667,-345 592.3333,-345 588.5,-341.1667 588.5,-337.3333 588.5,-337.3333 588.5,-329.6667 588.5,-329.6667 588.5,-325.8333 592.3333,-322 596.1667,-322 596.1667,-322 702.8333,-322 702.8333,-322 706.6667,-322 710.5,-325.8333 710.5,-329.6667 710.5,-329.6667 710.5,-337.3333 710.5,-337.3333 710.5,-341.1667 706.6667,-345 702.8333,-345"/>
<text text-anchor="middle" x="649.5" y="-329.8" font-family="Arial" font-size="14.00" fill="#cfffac">utilities/utilities.ts</text>
</g>
<!-- components/Hairs.tsx&#45;&gt;utilities/utilities.ts -->
<g id="edge22" class="edge">
<title>components/Hairs.tsx&#45;&gt;utilities/utilities.ts</title>
<path fill="none" stroke="#757575" d="M258.2651,-305.4799C270.2233,-306.9552 282.4287,-308.3526 294,-309.5 392.2753,-319.2448 506.234,-326.1692 578.0947,-330.0011"/>
<polygon fill="#757575" stroke="#757575" points="578.2142,-333.5122 588.3847,-330.544 578.583,-326.5219 578.2142,-333.5122"/>
</g>
<!-- components/Razor.tsx&#45;&gt;utilities/constants.ts -->
<g id="edge24" class="edge">
<title>components/Razor.tsx&#45;&gt;utilities/constants.ts</title>
<path fill="none" stroke="#757575" d="M475.5545,-146.0299C505.4515,-151.0951 540.7202,-157.0704 571.6574,-162.3118"/>
<polygon fill="#757575" stroke="#757575" points="571.0933,-165.766 581.5374,-163.9857 572.2626,-158.8644 571.0933,-165.766"/>
</g>
<!-- components/Razor.tsx&#45;&gt;utilities/utilities.ts -->
<g id="edge25" class="edge">
<title>components/Razor.tsx&#45;&gt;utilities/utilities.ts</title>
<path fill="none" stroke="#757575" d="M443.7311,-146.0867C468.2524,-155.5094 499.9007,-170.967 521,-193.5 548.2048,-222.5533 530.9889,-245.3732 557,-275.5 572.3655,-293.2967 594.5578,-307.4642 613.3536,-317.3412"/>
<polygon fill="#757575" stroke="#757575" points="612.0356,-320.5964 622.5401,-321.9768 615.1891,-314.347 612.0356,-320.5964"/>
</g>
<!-- svgs/razor.svg -->
<g id="node18" class="node">
<title>svgs/razor.svg</title>
<path fill="none" stroke="#cfffac" d="M696.8333,-146C696.8333,-146 602.1667,-146 602.1667,-146 598.3333,-146 594.5,-142.1667 594.5,-138.3333 594.5,-138.3333 594.5,-130.6667 594.5,-130.6667 594.5,-126.8333 598.3333,-123 602.1667,-123 602.1667,-123 696.8333,-123 696.8333,-123 700.6667,-123 704.5,-126.8333 704.5,-130.6667 704.5,-130.6667 704.5,-138.3333 704.5,-138.3333 704.5,-142.1667 700.6667,-146 696.8333,-146"/>
<text text-anchor="middle" x="649.5" y="-130.8" font-family="Arial" font-size="14.00" fill="#cfffac">svgs/razor.svg</text>
</g>
<!-- components/Razor.tsx&#45;&gt;svgs/razor.svg -->
<g id="edge23" class="edge">
<title>components/Razor.tsx&#45;&gt;svgs/razor.svg</title>
<path fill="none" stroke="#757575" d="M488.0825,-134.5C519.3231,-134.5 554.6248,-134.5 584.2308,-134.5"/>
<polygon fill="#757575" stroke="#757575" points="584.4493,-138.0001 594.4493,-134.5 584.4493,-131.0001 584.4493,-138.0001"/>
</g>
<!-- drivers/HairCuts.ts&#45;&gt;utilities/utilities.ts -->
<g id="edge28" class="edge">
<title>drivers/HairCuts.ts&#45;&gt;utilities/utilities.ts</title>
<path fill="none" stroke="#757575" d="M475.2323,-362.3046C507.419,-356.9845 545.8886,-350.6259 578.4858,-345.2379"/>
<polygon fill="#757575" stroke="#757575" points="579.1049,-348.6831 588.4002,-343.5991 577.9633,-341.7768 579.1049,-348.6831"/>
</g>
<!-- drivers/HairPositions.ts&#45;&gt;utilities/utilities.ts -->
<g id="edge29" class="edge">
<title>drivers/HairPositions.ts&#45;&gt;utilities/utilities.ts</title>
<path fill="none" stroke="#757575" d="M488.4492,-402.9933C499.5017,-400.6238 510.6112,-397.8142 521,-394.5 556.6211,-383.1361 595.0554,-363.8769 620.5154,-350.0364"/>
<polygon fill="#757575" stroke="#757575" points="622.2101,-353.0989 629.2791,-345.2072 618.8317,-346.9681 622.2101,-353.0989"/>
</g>
<!-- drivers/HairRotations.ts&#45;&gt;utilities/constants.ts -->
<g id="edge31" class="edge">
<title>drivers/HairRotations.ts&#45;&gt;utilities/constants.ts</title>
<path fill="none" stroke="#757575" d="M479.1257,-202.957C507.1776,-198.4362 539.503,-193.2268 568.4071,-188.5687"/>
<polygon fill="#757575" stroke="#757575" points="569.1599,-191.9926 578.4756,-186.9461 568.0461,-185.0818 569.1599,-191.9926"/>
</g>
<!-- drivers/HairRotations.ts&#45;&gt;drivers/Mouse.ts -->
<g id="edge30" class="edge">
<title>drivers/HairRotations.ts&#45;&gt;drivers/Mouse.ts</title>
<path fill="none" stroke="#757575" d="M477.1718,-226.016C508.6708,-231.2224 545.8664,-237.3705 577.6241,-242.6197"/>
<polygon fill="#757575" stroke="#757575" points="577.2929,-246.1124 587.7298,-244.2901 578.4345,-239.2061 577.2929,-246.1124"/>
</g>
<!-- drivers/Socket.ts&#45;&gt;drivers/HairCuts.ts -->
<g id="edge32" class="edge">
<title>drivers/Socket.ts&#45;&gt;drivers/HairCuts.ts</title>
<path fill="none" stroke="#757575" d="M241.5008,-374.2281C268.7492,-374.1086 301.0417,-373.9669 329.8687,-373.8405"/>
<polygon fill="#757575" stroke="#757575" points="329.9221,-377.3404 339.9066,-373.7965 329.8913,-370.3405 329.9221,-377.3404"/>
</g>
<!-- drivers/Socket.ts&#45;&gt;drivers/HairLengths.ts -->
<g id="edge33" class="edge">
<title>drivers/Socket.ts&#45;&gt;drivers/HairLengths.ts</title>
<path fill="none" stroke="#757575" d="M196.9438,-386.0576C218.732,-399.9475 257.5876,-422.9479 294,-435.5 301.8177,-438.1949 310.0692,-440.5409 318.4109,-442.5805"/>
<polygon fill="#757575" stroke="#757575" points="317.6941,-446.0069 328.2241,-444.8365 319.2625,-439.1849 317.6941,-446.0069"/>
</g>
<!-- drivers/Socket.ts&#45;&gt;drivers/HairPositions.ts -->
<g id="edge34" class="edge">
<title>drivers/Socket.ts&#45;&gt;drivers/HairPositions.ts</title>
<path fill="none" stroke="#757575" d="M241.5008,-385.3773C269.3389,-390.2612 302.442,-396.0688 331.7356,-401.208"/>
<polygon fill="#757575" stroke="#757575" points="331.4689,-404.7146 341.9233,-402.9953 332.6786,-397.8199 331.4689,-404.7146"/>
</g>
<!-- drivers/Socket.ts&#45;&gt;drivers/HairRotations.ts -->
<g id="edge35" class="edge">
<title>drivers/Socket.ts&#45;&gt;drivers/HairRotations.ts</title>
<path fill="none" stroke="#757575" d="M200.5155,-362.803C217.8225,-352.2953 242.0282,-335.4719 258,-315.5 282.3513,-285.0499 263.3291,-259.5727 294,-235.5 300.1515,-230.6718 307.065,-226.8277 314.3652,-223.7797"/>
<polygon fill="#757575" stroke="#757575" points="315.6024,-227.054 323.7906,-220.3306 313.1968,-220.4803 315.6024,-227.054"/>
</g>
<!-- components/FallingHair.tsx&#45;&gt;utilities/constants.ts -->
<g id="edge11" class="edge">
<title>components/FallingHair.tsx&#45;&gt;utilities/constants.ts</title>
<path fill="none" stroke="#757575" d="M495.1948,-66.0297C504.4841,-69.677 513.3249,-74.3993 521,-80.5 549.6313,-103.2581 528.3466,-131.7698 557,-154.5 560.6547,-157.3992 564.6332,-159.9139 568.8191,-162.0937"/>
<polygon fill="#757575" stroke="#757575" points="567.7138,-165.4344 578.269,-166.35 570.5885,-159.052 567.7138,-165.4344"/>
</g>
<!-- utilities/buckets.ts -->
<g id="node12" class="node">
<title>utilities/buckets.ts</title>
<path fill="none" stroke="#cfffac" d="M706.8333,-64C706.8333,-64 592.1667,-64 592.1667,-64 588.3333,-64 584.5,-60.1667 584.5,-56.3333 584.5,-56.3333 584.5,-48.6667 584.5,-48.6667 584.5,-44.8333 588.3333,-41 592.1667,-41 592.1667,-41 706.8333,-41 706.8333,-41 710.6667,-41 714.5,-44.8333 714.5,-48.6667 714.5,-48.6667 714.5,-56.3333 714.5,-56.3333 714.5,-60.1667 710.6667,-64 706.8333,-64"/>
<text text-anchor="middle" x="649.5" y="-48.8" font-family="Arial" font-size="14.00" fill="#cfffac">utilities/buckets.ts</text>
</g>
<!-- components/FallingHair.tsx&#45;&gt;utilities/buckets.ts -->
<g id="edge10" class="edge">
<title>components/FallingHair.tsx&#45;&gt;utilities/buckets.ts</title>
<path fill="none" stroke="#757575" d="M503.1448,-53.7095C526.746,-53.5145 551.6947,-53.3083 574.1775,-53.1225"/>
<polygon fill="#757575" stroke="#757575" points="574.3494,-56.6213 584.3201,-53.0387 574.2915,-49.6215 574.3494,-56.6213"/>
</g>
<!-- utilities/easing&#45;functions.ts -->
<g id="node13" class="node">
<title>utilities/easing&#45;functions.ts</title>
<path fill="none" stroke="#cfffac" d="M734.3333,-23C734.3333,-23 564.6667,-23 564.6667,-23 560.8333,-23 557,-19.1667 557,-15.3333 557,-15.3333 557,-7.6667 557,-7.6667 557,-3.8333 560.8333,0 564.6667,0 564.6667,0 734.3333,0 734.3333,0 738.1667,0 742,-3.8333 742,-7.6667 742,-7.6667 742,-15.3333 742,-15.3333 742,-19.1667 738.1667,-23 734.3333,-23"/>
<text text-anchor="middle" x="649.5" y="-7.8" font-family="Arial" font-size="14.00" fill="#cfffac">utilities/easing&#45;functions.ts</text>
</g>
<!-- components/FallingHair.tsx&#45;&gt;utilities/easing&#45;functions.ts -->
<g id="edge12" class="edge">
<title>components/FallingHair.tsx&#45;&gt;utilities/easing&#45;functions.ts</title>
<path fill="none" stroke="#757575" d="M472.3516,-42.9768C503.818,-37.3856 541.7939,-30.6379 574.5011,-24.8263"/>
<polygon fill="#757575" stroke="#757575" points="575.236,-28.2506 584.4694,-23.055 574.0113,-21.3585 575.236,-28.2506"/>
</g>
<!-- utilities/fifo.ts -->
<g id="node14" class="node">
<title>utilities/fifo.ts</title>
<path fill="none" stroke="#cfffac" d="M690.8333,-105C690.8333,-105 608.1667,-105 608.1667,-105 604.3333,-105 600.5,-101.1667 600.5,-97.3333 600.5,-97.3333 600.5,-89.6667 600.5,-89.6667 600.5,-85.8333 604.3333,-82 608.1667,-82 608.1667,-82 690.8333,-82 690.8333,-82 694.6667,-82 698.5,-85.8333 698.5,-89.6667 698.5,-89.6667 698.5,-97.3333 698.5,-97.3333 698.5,-101.1667 694.6667,-105 690.8333,-105"/>
<text text-anchor="middle" x="649.5" y="-89.8" font-family="Arial" font-size="14.00" fill="#cfffac">utilities/fifo.ts</text>
</g>
<!-- components/FallingHair.tsx&#45;&gt;utilities/fifo.ts -->
<g id="edge13" class="edge">
<title>components/FallingHair.tsx&#45;&gt;utilities/fifo.ts</title>
<path fill="none" stroke="#757575" d="M479.1257,-66.043C514.4921,-71.7425 556.6511,-78.5367 590.1829,-83.9406"/>
<polygon fill="#757575" stroke="#757575" points="589.8658,-87.4346 600.2953,-85.5703 590.9796,-80.5238 589.8658,-87.4346"/>
</g>
<!-- components/triangle&#45;geometry.ts&#45;&gt;utilities/constants.ts -->
<g id="edge26" class="edge">
<title>components/triangle&#45;geometry.ts&#45;&gt;utilities/constants.ts</title>
<path fill="none" stroke="#757575" d="M488.1254,-243.9966C499.2812,-241.6228 510.5053,-238.8112 521,-235.5 556.3944,-224.3325 594.6604,-205.5129 620.1439,-191.925"/>
<polygon fill="#757575" stroke="#757575" points="622.1203,-194.8353 629.2522,-187.0004 618.791,-188.6777 622.1203,-194.8353"/>
</g>
<!-- components/triangle&#45;geometry.ts&#45;&gt;utilities/utilities.ts -->
<g id="edge27" class="edge">
<title>components/triangle&#45;geometry.ts&#45;&gt;utilities/utilities.ts</title>
<path fill="none" stroke="#757575" d="M443.2079,-267.0092C485.9237,-280.777 557.4935,-303.845 604.0988,-318.8666"/>
<polygon fill="#757575" stroke="#757575" points="603.054,-322.2071 613.6456,-321.9436 605.2015,-315.5446 603.054,-322.2071"/>
</g>
</g>
</svg>
