<?xml version="1.0" standalone="no"?>
<!DOCTYPE svg PUBLIC "-//W3C//DTD SVG 20010904//EN"
 "http://www.w3.org/TR/2001/REC-SVG-20010904/DTD/svg10.dtd">
<svg version="1.0" xmlns="http://www.w3.org/2000/svg"
 width="1200.000000pt" height="1200.000000pt" viewBox="0 0 1200.000000 1200.000000"
 preserveAspectRatio="xMidYMid meet">
<metadata>
Created by potrace 1.11, written by Peter Selinger 2001-2013
</metadata>
<g transform="translate(0.000000,1200.000000) scale(0.100000,-0.100000)"
fill="#000000" stroke="none">
<path d="M1520 8969 l0 -30 -29 20 -28 20 -71 -87 c-454 -562 -515 -1114 -184
-1662 53 -87 108 -162 205 -277 l69 -83 1603 0 1603 0 51 -56 c162 -177 201
-270 286 -683 179 -869 257 -1851 242 -3061 -9 -732 -36 -1332 -92 -2065 -55
-706 -67 -856 -81 -962 l-5 -43 79 0 80 0 5 33 c3 17 11 100 17 182 6 83 22
276 36 430 13 154 28 363 34 465 6 102 17 273 25 380 81 1101 81 2618 0 3380
-8 74 -19 187 -25 250 -27 322 -137 976 -221 1315 -40 162 -105 293 -207 416
-202 242 -418 391 -1027 704 -236 122 -334 173 -454 239 l-94 51 107 3 c101 3
111 1 194 -31 48 -19 119 -46 157 -60 88 -33 397 -134 450 -148 22 -5 90 -23
150 -39 599 -159 1228 -227 1858 -201 144 6 332 19 417 30 85 10 182 22 215
26 83 9 421 71 494 90 34 8 84 20 113 25 163 31 602 164 951 290 48 17 77 20
170 18 l112 -3 -55 -33 c-30 -18 -100 -61 -155 -94 -98 -60 -143 -86 -451
-261 -687 -388 -951 -598 -1077 -852 -52 -104 -109 -365 -191 -870 -54 -332
-120 -945 -136 -1260 -5 -104 -14 -280 -19 -390 -26 -525 -23 -1114 9 -1885
18 -420 24 -518 80 -1290 6 -80 19 -237 30 -350 10 -113 24 -266 30 -340 6
-74 14 -154 17 -178 l6 -42 78 0 c44 0 79 4 79 9 0 5 -7 69 -15 143 -8 73 -19
194 -25 268 -6 74 -19 234 -30 355 -72 812 -113 1693 -114 2485 -1 733 15
1107 74 1720 44 466 145 1109 226 1436 36 147 113 259 274 398 l65 56 1547 0
1546 0 87 103 c216 254 351 523 384 760 14 97 14 259 1 352 -36 255 -184 555
-418 848 l-54 67 -4499 0 -4499 0 0 -31z"/>
<path d="M5110 6645 c0 -60 25 -176 113 -520 25 -99 59 -243 76 -320 35 -158
81 -551 81 -686 0 -88 1 -90 23 -87 l22 3 15 395 15 395 -27 160 c-15 88 -37
214 -48 279 l-21 119 -116 151 c-64 83 -120 155 -124 161 -5 5 -9 -17 -9 -50z"/>
</g>
</svg>
