<?xml version="1.0" encoding="UTF-8" standalone="no"?>
<!-- Created with Inkscape (http://www.inkscape.org/) -->

<svg
   xmlns:dc="http://purl.org/dc/elements/1.1/"
   xmlns:cc="http://creativecommons.org/ns#"
   xmlns:rdf="http://www.w3.org/1999/02/22-rdf-syntax-ns#"
   xmlns:svg="http://www.w3.org/2000/svg"
   xmlns="http://www.w3.org/2000/svg"
   xmlns:sodipodi="http://sodipodi.sourceforge.net/DTD/sodipodi-0.dtd"
   xmlns:inkscape="http://www.inkscape.org/namespaces/inkscape"
   width="512"
   height="512"
   viewBox="0 0 135.46666 135.46666"
   version="1.1"
   id="svg5168"
   sodipodi:docname="razor_curved_shadow.svg"
   inkscape:version="0.92.4 (5da689c313, 2019-01-14)">
  <defs
     id="defs5162" />
  <sodipodi:namedview
     id="base"
     pagecolor="#ffffff"
     bordercolor="#666666"
     borderopacity="1.0"
     inkscape:pageopacity="0.0"
     inkscape:pageshadow="2"
     inkscape:zoom="3.1"
     inkscape:cx="264.96644"
     inkscape:cy="325.85042"
     inkscape:document-units="px"
     inkscape:current-layer="layer1"
     showgrid="false"
     units="px"
     inkscape:window-width="1920"
     inkscape:window-height="1000"
     inkscape:window-x="-11"
     inkscape:window-y="-11"
     inkscape:window-maximized="1">
    <inkscape:grid
       type="xygrid"
       id="grid5172"
       spacingx="2.6458332"
       spacingy="2.6458332" />
  </sodipodi:namedview>
  <metadata
     id="metadata5165">
    <rdf:RDF>
      <cc:Work
         rdf:about="">
        <dc:format>image/svg+xml</dc:format>
        <dc:type
           rdf:resource="http://purl.org/dc/dcmitype/StillImage" />
        <dc:title></dc:title>
      </cc:Work>
    </rdf:RDF>
  </metadata>
  <g
     inkscape:label="Layer 1"
     inkscape:groupmode="layer"
     id="layer1"
     transform="translate(0,-161.53337)">
    <path
       style="fill:#746d75;stroke:#000000;stroke-width:0.79374999;stroke-linecap:butt;stroke-linejoin:miter;stroke-miterlimit:4;stroke-dasharray:none;stroke-opacity:1;fill-opacity:1"
       d="m 42.081317,177.93754 h 47.877012 c 2.681777,3.24093 3.669034,6.66311 0,10.58333 H 42.081317 c -3.364522,-3.64773 -3.015106,-7.16305 0,-10.58333"
       id="path5176"
       inkscape:connector-curvature="0"
       sodipodi:nodetypes="ccccc" />
    <path
       style="fill:none;stroke:#000000;stroke-width:0.79374996;stroke-linecap:butt;stroke-linejoin:miter;stroke-opacity:1;stroke-miterlimit:4;stroke-dasharray:none"
       d="m 44.979164,180.58337 h 42.333332 v 0"
       id="path5723"
       inkscape:connector-curvature="0" />
    <path
       style="fill:#3e3a3f;fill-opacity:1;stroke:#3e3a3f;stroke-width:0.26458332px;stroke-linecap:butt;stroke-linejoin:miter;stroke-opacity:1"
       d="m 48.222443,183.46062 2.048388,-0.23142 1.53629,1.38852 2.98723,1.54281 2.560484,1.1571 0.768146,0.69427 -1.877687,-0.15428 -2.219087,-1.1571 -3.413979,-1.46567 z"
       id="path5733"
       inkscape:connector-curvature="0" />
    <path
       style="fill:none;stroke:#000000;stroke-width:0.79374996;stroke-linecap:butt;stroke-linejoin:miter;stroke-opacity:1;stroke-miterlimit:4;stroke-dasharray:none"
       d="M 44.979164,183.2292 H 87.312496"
       id="path5725"
       inkscape:connector-curvature="0" />
    <path
       style="fill:none;stroke:#000000;stroke-width:0.79374996;stroke-linecap:butt;stroke-linejoin:miter;stroke-opacity:1;stroke-miterlimit:4;stroke-dasharray:none"
       d="M 44.979164,185.87504 H 87.312496"
       id="path5727"
       inkscape:connector-curvature="0" />
    <path
       style="fill:#8acdea;fill-opacity:1;stroke:#000000;stroke-width:0.79374999;stroke-linecap:butt;stroke-linejoin:miter;stroke-miterlimit:4;stroke-dasharray:none;stroke-opacity:1"
       d="m 50.270831,183.2292 h 2.645833 c 9.182827,3.75496 17.957694,3.29433 26.458332,0 h 2.645833 c -3.93397,2.92713 -9.90756,4.95183 -10.583333,7.9375 -6.179844,27.30349 7.45697,63.01533 0,92.60416 -1.480635,5.87508 -9.681826,3.96338 -10.583332,0 -6.702464,-29.46672 6.079474,-67.55097 0,-92.60416 -0.931043,-3.83678 -6.959357,-5.33528 -10.583333,-7.9375 z"
       id="path5721"
       inkscape:connector-curvature="0"
       sodipodi:nodetypes="ccccssssc" />
    <path
       style="fill:#61b4d8;fill-opacity:1;stroke:#61b4d8;stroke-width:0.26458332px;stroke-linecap:butt;stroke-linejoin:miter;stroke-opacity:1"
       d="m 59.54186,265.03929 -0.176732,3.33299 0.412376,4.95563 1.001482,6.22743 0.883659,3.37685 0.471289,1.53493 1.944051,1.88577 1.354943,0.43855 0.765842,0.30699 -2.002962,-1.49107 -1.413858,-2.0612 -1.119305,-3.37684 -1.001479,-4.99949 -0.530201,-4.16624 -0.23564,-2.5436 -0.235644,-3.59612"
       id="path5729"
       inkscape:connector-curvature="0" />
    <path
       style="fill:#61b4d8;stroke:#61b4d8;stroke-width:0.26458332px;stroke-linecap:butt;stroke-linejoin:miter;stroke-opacity:1;fill-opacity:1"
       d="m 61.366259,190.14251 c 0,0.5121 0.682797,2.90188 0.682797,2.90188 l 0.512096,2.30443 0.256048,2.38979 v 1.02419 l 0.170701,-4.26747 -0.512098,-2.90188 z"
       id="path5731"
       inkscape:connector-curvature="0" />
  </g>
</svg>
